<?xml version="1.0" encoding="UTF-8"?>
<!DOCTYPE svg PUBLIC "-//W3C//DTD SVG 1.1//EN" "http://www.w3.org/Graphics/SVG/1.1/DTD/svg11.dtd">
<!-- Creator: CorelDRAW 2019 (64-Bit) -->
<svg xmlns="http://www.w3.org/2000/svg" xml:space="preserve" width="272.769mm" height="116.674mm" version="1.1" style="shape-rendering:geometricPrecision; text-rendering:geometricPrecision; image-rendering:optimizeQuality; fill-rule:evenodd; clip-rule:evenodd"
viewBox="0 0 27262.69 11661.32"
 xmlns:xlink="http://www.w3.org/1999/xlink"
 xmlns:xodm="http://www.corel.com/coreldraw/odm/2003">
 <defs>
  <style type="text/css">
   <![CDATA[
    .fil54 {fill:url(#id0)}
    .fil11 {fill:url(#id1)}
    .fil22 {fill:url(#id2)}
    .fil78 {fill:url(#id3)}
    .fil65 {fill:url(#id4)}
    .fil76 {fill:url(#id5)}
    .fil43 {fill:url(#id6)}
    .fil0 {fill:url(#id7)}
    .fil77 {fill:url(#id8)}
    .fil2 {fill:url(#id9)}
    .fil13 {fill:url(#id10)}
    .fil55 {fill:url(#id11)}
    .fil24 {fill:url(#id12)}
    .fil66 {fill:url(#id13)}
    .fil23 {fill:url(#id14)}
    .fil45 {fill:url(#id15)}
    .fil67 {fill:url(#id16)}
    .fil56 {fill:url(#id17)}
    .fil44 {fill:url(#id18)}
    .fil1 {fill:url(#id19)}
    .fil12 {fill:url(#id20)}
    .fil63 {fill:url(#id21)}
    .fil74 {fill:url(#id22)}
    .fil52 {fill:url(#id23)}
    .fil37 {fill:url(#id24)}
    .fil19 {fill:url(#id25)}
    .fil28 {fill:url(#id26)}
    .fil35 {fill:url(#id27)}
    .fil49 {fill:url(#id28)}
    .fil64 {fill:url(#id29)}
    .fil41 {fill:url(#id30)}
    .fil10 {fill:url(#id31)}
    .fil31 {fill:url(#id32)}
    .fil42 {fill:url(#id33)}
    .fil62 {fill:url(#id34)}
    .fil18 {fill:url(#id35)}
    .fil73 {fill:url(#id36)}
    .fil46 {fill:url(#id37)}
    .fil68 {fill:url(#id38)}
    .fil48 {fill:url(#id39)}
    .fil69 {fill:url(#id40)}
    .fil21 {fill:url(#id41)}
    .fil53 {fill:url(#id42)}
    .fil30 {fill:url(#id43)}
    .fil50 {fill:url(#id44)}
    .fil15 {fill:url(#id45)}
    .fil51 {fill:url(#id46)}
    .fil25 {fill:url(#id47)}
    .fil75 {fill:url(#id48)}
    .fil4 {fill:url(#id49)}
    .fil27 {fill:url(#id50)}
    .fil7 {fill:url(#id51)}
    .fil39 {fill:url(#id52)}
    .fil29 {fill:url(#id53)}
    .fil16 {fill:url(#id54)}
    .fil58 {fill:url(#id55)}
    .fil14 {fill:url(#id56)}
    .fil33 {fill:url(#id57)}
    .fil3 {fill:url(#id58)}
    .fil9 {fill:url(#id59)}
    .fil40 {fill:url(#id60)}
    .fil8 {fill:url(#id61)}
    .fil72 {fill:url(#id62)}
    .fil20 {fill:url(#id63)}
    .fil71 {fill:url(#id64)}
    .fil70 {fill:url(#id65)}
    .fil38 {fill:url(#id66)}
    .fil60 {fill:url(#id67)}
    .fil17 {fill:url(#id68)}
    .fil36 {fill:url(#id69)}
    .fil59 {fill:url(#id70)}
    .fil5 {fill:url(#id71)}
    .fil32 {fill:url(#id72)}
    .fil34 {fill:url(#id73)}
    .fil6 {fill:url(#id74)}
    .fil61 {fill:url(#id75)}
    .fil47 {fill:url(#id76)}
    .fil26 {fill:url(#id77)}
    .fil57 {fill:url(#id78)}
   ]]>
  </style>
  <linearGradient id="id0" gradientUnits="userSpaceOnUse" x1="4025.63" y1="3942.52" x2="7182.11" y2="3942.52">
   <stop offset="0" style="stop-opacity:1; stop-color:#B7854D"/>
   <stop offset="0.14902" style="stop-opacity:1; stop-color:#F5D98F"/>
   <stop offset="0.301961" style="stop-opacity:1; stop-color:#FFF9B3"/>
   <stop offset="0.521569" style="stop-opacity:1; stop-color:#F4D88E"/>
   <stop offset="0.639216" style="stop-opacity:1; stop-color:#FEF9B4"/>
   <stop offset="0.74902" style="stop-opacity:1; stop-color:#D4AF66"/>
   <stop offset="0.85098" style="stop-opacity:1; stop-color:#BD9149"/>
   <stop offset="1" style="stop-opacity:1; stop-color:#B7854D"/>
  </linearGradient>
  <linearGradient id="id1" gradientUnits="userSpaceOnUse" xlink:href="#id0" x1="20080.58" y1="3942.52" x2="23237.06" y2="3942.52">
  </linearGradient>
  <linearGradient id="id2" gradientUnits="userSpaceOnUse" xlink:href="#id0" x1="22745.57" y1="5405.36" x2="26559.33" y2="5405.36">
  </linearGradient>
  <linearGradient id="id3" gradientUnits="userSpaceOnUse" x1="8063.23" y1="9836.66" x2="16367.98" y2="9836.66">
   <stop offset="0" style="stop-opacity:1; stop-color:#BF8B4B"/>
   <stop offset="0.14902" style="stop-opacity:1; stop-color:#F7DD93"/>
   <stop offset="0.301961" style="stop-opacity:1; stop-color:#FCF6BB"/>
   <stop offset="0.521569" style="stop-opacity:1; stop-color:#F7DC91"/>
   <stop offset="0.639216" style="stop-opacity:1; stop-color:#FCF6BB"/>
   <stop offset="0.74902" style="stop-opacity:1; stop-color:#DAB563"/>
   <stop offset="0.85098" style="stop-opacity:1; stop-color:#C49646"/>
   <stop offset="1" style="stop-opacity:1; stop-color:#BF8B4B"/>
  </linearGradient>
  <linearGradient id="id4" gradientUnits="userSpaceOnUse" xlink:href="#id0" x1="703.35" y1="5405.36" x2="4517.11" y2="5405.36">
  </linearGradient>
  <linearGradient id="id5" gradientUnits="userSpaceOnUse" xlink:href="#id3" x1="16793.05" y1="10166.18" x2="27262.75" y2="10166.18">
  </linearGradient>
  <linearGradient id="id6" gradientUnits="userSpaceOnUse" xlink:href="#id0" x1="4582.4" y1="6681.47" x2="9136.04" y2="6681.47">
  </linearGradient>
  <linearGradient id="id7" gradientUnits="userSpaceOnUse" xlink:href="#id0" x1="18126.64" y1="6681.47" x2="22680.27" y2="6681.47">
  </linearGradient>
  <linearGradient id="id8" gradientUnits="userSpaceOnUse" xlink:href="#id3" x1="-0" y1="9836.66" x2="7531.51" y2="9836.66">
  </linearGradient>
  <linearGradient id="id9" gradientUnits="userSpaceOnUse" xlink:href="#id0" x1="19015.96" y1="6305.76" x2="21823.13" y2="6305.76">
  </linearGradient>
  <linearGradient id="id10" gradientUnits="userSpaceOnUse" xlink:href="#id0" x1="20697.04" y1="3682.09" x2="22642.9" y2="3682.09">
  </linearGradient>
  <linearGradient id="id11" gradientUnits="userSpaceOnUse" xlink:href="#id0" x1="4883.35" y1="3725.57" x2="6341.07" y2="3725.57">
  </linearGradient>
  <linearGradient id="id12" gradientUnits="userSpaceOnUse" xlink:href="#id0" x1="23490.36" y1="5090.7" x2="25841.47" y2="5090.7">
  </linearGradient>
  <linearGradient id="id13" gradientUnits="userSpaceOnUse" xlink:href="#id0" x1="1739.69" y1="5143.24" x2="3500.97" y2="5143.24">
  </linearGradient>
  <linearGradient id="id14" gradientUnits="userSpaceOnUse" xlink:href="#id0" x1="23781.92" y1="5143.24" x2="25543.16" y2="5143.24">
  </linearGradient>
  <linearGradient id="id15" gradientUnits="userSpaceOnUse" xlink:href="#id0" x1="5471.7" y1="6305.76" x2="8278.92" y2="6305.76">
  </linearGradient>
  <linearGradient id="id16" gradientUnits="userSpaceOnUse" xlink:href="#id0" x1="1448.17" y1="5090.7" x2="3799.24" y2="5090.7">
  </linearGradient>
  <linearGradient id="id17" gradientUnits="userSpaceOnUse" xlink:href="#id0" x1="4642.06" y1="3682.09" x2="6587.97" y2="3682.09">
  </linearGradient>
  <linearGradient id="id18" gradientUnits="userSpaceOnUse" xlink:href="#id0" x1="5819.82" y1="6368.5" x2="7922.73" y2="6368.5">
  </linearGradient>
  <linearGradient id="id19" gradientUnits="userSpaceOnUse" xlink:href="#id0" x1="19364.03" y1="6368.5" x2="21466.99" y2="6368.5">
  </linearGradient>
  <linearGradient id="id20" gradientUnits="userSpaceOnUse" xlink:href="#id0" x1="20938.31" y1="3725.57" x2="22396.03" y2="3725.57">
  </linearGradient>
  <linearGradient id="id21" gradientUnits="userSpaceOnUse" xlink:href="#id0" x1="6355.15" y1="3782.28" x2="4663.96" y2="3782.28">
  </linearGradient>
  <linearGradient id="id22" gradientUnits="userSpaceOnUse" xlink:href="#id0" x1="3517.92" y1="5211.77" x2="1474.63" y2="5211.77">
  </linearGradient>
  <linearGradient id="id23" gradientUnits="userSpaceOnUse" xlink:href="#id0" x1="7943.02" y1="6450.31" x2="5503.3" y2="6450.31">
  </linearGradient>
  <linearGradient id="id24" gradientUnits="userSpaceOnUse" xlink:href="#id0" x1="8034.55" y1="1105.6" x2="19460.76" y2="1105.6">
  </linearGradient>
  <linearGradient id="id25" gradientUnits="userSpaceOnUse" xlink:href="#id0" x1="22097.5" y1="3726.72" x2="24062.04" y2="3726.72">
  </linearGradient>
  <linearGradient id="id26" gradientUnits="userSpaceOnUse" xlink:href="#id0" x1="26164.59" y1="5144.63" x2="23423.91" y2="5144.63">
  </linearGradient>
  <linearGradient id="id27" gradientUnits="userSpaceOnUse" xlink:href="#id0" x1="9312.87" y1="3851.5" x2="19148.52" y2="3851.5">
  </linearGradient>
  <linearGradient id="id28" gradientUnits="userSpaceOnUse" xlink:href="#id0" x1="5053.72" y1="6370.16" x2="8326.1" y2="6370.16">
  </linearGradient>
  <linearGradient id="id29" gradientUnits="userSpaceOnUse" xlink:href="#id0" x1="3632.34" y1="4009.4" x2="5596.98" y2="4009.4">
  </linearGradient>
  <linearGradient id="id30" gradientUnits="userSpaceOnUse" xlink:href="#id0" x1="18051.49" y1="3851.5" x2="8215.86" y2="3851.5">
  </linearGradient>
  <linearGradient id="id31" gradientUnits="userSpaceOnUse" xlink:href="#id0" x1="19002.59" y1="6777.97" x2="21836.82" y2="6777.97">
  </linearGradient>
  <linearGradient id="id32" gradientUnits="userSpaceOnUse" xlink:href="#id0" x1="26414.04" y1="5211.77" x2="24370.75" y2="5211.77">
  </linearGradient>
  <linearGradient id="id33" gradientUnits="userSpaceOnUse" xlink:href="#id0" x1="2216.07" y1="5172.42" x2="13642.17" y2="5172.42">
  </linearGradient>
  <linearGradient id="id34" gradientUnits="userSpaceOnUse" xlink:href="#id0" x1="4632.81" y1="3726.72" x2="6597.35" y2="3726.72">
  </linearGradient>
  <linearGradient id="id35" gradientUnits="userSpaceOnUse" xlink:href="#id0" x1="21241.1" y1="3342.76" x2="23205.72" y2="3342.76">
  </linearGradient>
  <linearGradient id="id36" gradientUnits="userSpaceOnUse" xlink:href="#id0" x1="1436.97" y1="5144.63" x2="3810.66" y2="5144.63">
  </linearGradient>
  <linearGradient id="id37" gradientUnits="userSpaceOnUse" xlink:href="#id0" x1="5775.43" y1="6450.31" x2="8215.14" y2="6450.31">
  </linearGradient>
  <linearGradient id="id38" gradientUnits="userSpaceOnUse" xlink:href="#id0" x1="1702.54" y1="5211.77" x2="3745.83" y2="5211.77">
  </linearGradient>
  <linearGradient id="id39" gradientUnits="userSpaceOnUse" xlink:href="#id0" x1="5458.35" y1="5769.19" x2="8292.58" y2="5769.19">
  </linearGradient>
  <linearGradient id="id40" gradientUnits="userSpaceOnUse" xlink:href="#id0" x1="1436.97" y1="5486.18" x2="3810.72" y2="5486.18">
  </linearGradient>
  <linearGradient id="id41" gradientUnits="userSpaceOnUse" xlink:href="#id0" x1="20687.76" y1="4009.4" x2="22652.41" y2="4009.4">
  </linearGradient>
  <linearGradient id="id42" gradientUnits="userSpaceOnUse" xlink:href="#id0" x1="4015.05" y1="6777.97" x2="6849.3" y2="6777.97">
  </linearGradient>
  <linearGradient id="id43" gradientUnits="userSpaceOnUse" xlink:href="#id0" x1="25182.46" y1="5144.63" x2="27556.15" y2="5144.63">
  </linearGradient>
  <linearGradient id="id44" gradientUnits="userSpaceOnUse" xlink:href="#id0" x1="5458.32" y1="5816.26" x2="8292.61" y2="5816.26">
  </linearGradient>
  <linearGradient id="id45" gradientUnits="userSpaceOnUse" xlink:href="#id0" x1="19687.3" y1="4009.4" x2="21651.94" y2="4009.4">
  </linearGradient>
  <linearGradient id="id46" gradientUnits="userSpaceOnUse" xlink:href="#id0" x1="5458.35" y1="6370.16" x2="8292.51" y2="6370.16">
  </linearGradient>
  <linearGradient id="id47" gradientUnits="userSpaceOnUse" xlink:href="#id0" x1="22890.83" y1="5211.77" x2="24934.15" y2="5211.77">
  </linearGradient>
  <linearGradient id="id48" gradientUnits="userSpaceOnUse" xlink:href="#id0" x1="228.18" y1="5486.18" x2="2601.92" y2="5486.18">
  </linearGradient>
  <linearGradient id="id49" gradientUnits="userSpaceOnUse" xlink:href="#id0" x1="17559.27" y1="6777.97" x2="20393.54" y2="6777.97">
  </linearGradient>
  <linearGradient id="id50" gradientUnits="userSpaceOnUse" xlink:href="#id0" x1="22810.64" y1="4641.31" x2="25184.37" y2="4641.31">
  </linearGradient>
  <linearGradient id="id51" gradientUnits="userSpaceOnUse" xlink:href="#id0" x1="19800.84" y1="5816.26" x2="22635.06" y2="5816.26">
  </linearGradient>
  <linearGradient id="id52" gradientUnits="userSpaceOnUse" xlink:href="#id0" x1="8034.58" y1="1295.32" x2="19460.75" y2="1295.32">
  </linearGradient>
  <linearGradient id="id53" gradientUnits="userSpaceOnUse" xlink:href="#id0" x1="24147.75" y1="4680.72" x2="26521.45" y2="4680.72">
  </linearGradient>
  <linearGradient id="id54" gradientUnits="userSpaceOnUse" xlink:href="#id0" x1="20134.39" y1="3310.14" x2="22099.11" y2="3310.14">
  </linearGradient>
  <linearGradient id="id55" gradientUnits="userSpaceOnUse" xlink:href="#id0" x1="4632.79" y1="4009.4" x2="6597.45" y2="4009.4">
  </linearGradient>
  <linearGradient id="id56" gradientUnits="userSpaceOnUse" xlink:href="#id0" x1="20200.83" y1="3782.28" x2="21891.98" y2="3782.28">
  </linearGradient>
  <linearGradient id="id57" gradientUnits="userSpaceOnUse" xlink:href="#id0" x1="9491.78" y1="3521.66" x2="17969.76" y2="3521.66">
  </linearGradient>
  <linearGradient id="id58" gradientUnits="userSpaceOnUse" xlink:href="#id0" x1="18300.09" y1="6450.31" x2="20739.83" y2="6450.31">
  </linearGradient>
  <linearGradient id="id59" gradientUnits="userSpaceOnUse" xlink:href="#id0" x1="22506.81" y1="6450.31" x2="20067.1" y2="6450.31">
  </linearGradient>
  <linearGradient id="id60" gradientUnits="userSpaceOnUse" xlink:href="#id0" x1="8034.6" y1="3528.36" x2="19460.71" y2="3528.36">
  </linearGradient>
  <linearGradient id="id61" gradientUnits="userSpaceOnUse" xlink:href="#id0" x1="21036.28" y1="6370.16" x2="23870.52" y2="6370.16">
  </linearGradient>
  <linearGradient id="id62" gradientUnits="userSpaceOnUse" xlink:href="#id0" x1="1436.97" y1="4680.72" x2="3810.69" y2="4680.72">
  </linearGradient>
  <linearGradient id="id63" gradientUnits="userSpaceOnUse" xlink:href="#id0" x1="23116.81" y1="3782.28" x2="21425.67" y2="3782.28">
  </linearGradient>
  <linearGradient id="id64" gradientUnits="userSpaceOnUse" xlink:href="#id0" x1="1098.09" y1="5144.63" x2="3838.77" y2="5144.63">
  </linearGradient>
  <linearGradient id="id65" gradientUnits="userSpaceOnUse" xlink:href="#id0" x1="1436.93" y1="4641.31" x2="3810.73" y2="4641.31">
  </linearGradient>
  <linearGradient id="id66" gradientUnits="userSpaceOnUse" xlink:href="#id0" x1="6403.43" y1="3528.36" x2="19595.79" y2="3528.36">
  </linearGradient>
  <linearGradient id="id67" gradientUnits="userSpaceOnUse" xlink:href="#id0" x1="4352.33" y1="3726.72" x2="6620.67" y2="3726.72">
  </linearGradient>
  <linearGradient id="id68" gradientUnits="userSpaceOnUse" xlink:href="#id0" x1="22910.36" y1="3726.72" x2="20642.02" y2="3726.72">
  </linearGradient>
  <linearGradient id="id69" gradientUnits="userSpaceOnUse" xlink:href="#id0" x1="8034.62" y1="5172.42" x2="19460.74" y2="5172.42">
  </linearGradient>
  <linearGradient id="id70" gradientUnits="userSpaceOnUse" xlink:href="#id0" x1="4632.81" y1="3310.14" x2="6597.44" y2="3310.14">
  </linearGradient>
  <linearGradient id="id71" gradientUnits="userSpaceOnUse" xlink:href="#id0" x1="18204.35" y1="5769.19" x2="21038.58" y2="5769.19">
  </linearGradient>
  <linearGradient id="id72" gradientUnits="userSpaceOnUse" xlink:href="#id0" x1="23479.19" y1="5486.18" x2="25852.93" y2="5486.18">
  </linearGradient>
  <linearGradient id="id73" gradientUnits="userSpaceOnUse" xlink:href="#id0" x1="8088.5" y1="3268.72" x2="19405.58" y2="3268.72">
  </linearGradient>
  <linearGradient id="id74" gradientUnits="userSpaceOnUse" xlink:href="#id0" x1="22208.96" y1="6370.16" x2="18936.59" y2="6370.16">
  </linearGradient>
  <linearGradient id="id75" gradientUnits="userSpaceOnUse" xlink:href="#id0" x1="4632.78" y1="3342.76" x2="6597.48" y2="3342.76">
  </linearGradient>
  <linearGradient id="id76" gradientUnits="userSpaceOnUse" xlink:href="#id0" x1="5458.35" y1="6777.97" x2="8292.59" y2="6777.97">
  </linearGradient>
  <linearGradient id="id77" gradientUnits="userSpaceOnUse" xlink:href="#id0" x1="22270.4" y1="5486.18" x2="24644.15" y2="5486.18">
  </linearGradient>
  <linearGradient id="id78" gradientUnits="userSpaceOnUse" xlink:href="#id0" x1="4852.58" y1="3782.28" x2="6543.76" y2="3782.28">
  </linearGradient>
 </defs>
 <g id="Layer_x0020_1">
  <metadata id="CorelCorpID_0Corel-Layer"/>
  <g id="_1828517918160">
   <path class="fil0" d="M21566.94 6721.27c89.56,30.97 165.44,66.01 225.51,106.09l0 0c40.34,27.16 73.93,56.73 99.01,91.28l0 0c24.94,34.3 41.05,75.26 40.99,118.67l0 0c0.06,43.99 -16.51,85.5 -42.09,120.12l0 0c-22.46,30.57 -51.67,57.18 -86.23,81.76l0 0c-60.59,42.8 -138.33,79.55 -231.22,112.27l0 0c-139.23,48.8 -312.66,87.9 -510.19,115.12l0 0c-197.5,27.2 -418.94,42.42 -652.96,42.42l0 0c-407.68,-0.13 -776.61,-45.89 -1048.5,-121.67l0 0c-136.11,-38.19 -247.95,-83.37 -330.68,-137.81l0 0c-41.35,-27.32 -75.75,-57.22 -101.43,-92.09l0 0c-25.55,-34.62 -42.15,-76.13 -42.06,-120.12l0 0c-0.09,-44.08 16.51,-85.53 42.06,-120.15l0 0c38.71,-52.22 96.27,-93.66 168.87,-131.25l0 0c42.78,-21.96 91.25,-42.25 144.66,-61.07 27.72,36.37 58.38,71.33 91.83,104.65 -99.16,31.45 -178.95,67.06 -233.03,102.96l0 0c-32.43,21.37 -55.34,42.67 -68.5,60.79l0 0c-13.29,18.43 -17.05,31.84 -17.21,44.08l0 0c0.16,12.19 3.92,25.65 17.21,44.05l0 0c11.55,15.83 30.47,34.14 56.82,52.77l0 0c46.02,32.72 114.17,65.99 199.44,95.85l0 0c127.9,44.96 294.16,82.86 485.13,109.11l0 0c191.03,26.29 406.94,41.2 635.39,41.2l0 0c0.36,0 0.78,0 1.13,0l0 0c397.31,0 757.05,-45.45 1012.75,-116.94 127.8,-35.56 229.55,-78.16 294.39,-121.22l0 0c32.44,-21.32 55.35,-42.63 68.5,-60.78l0 0c13.28,-18.4 17.09,-31.85 17.22,-44.05l0 0c-0.13,-12.06 -3.84,-25.26 -16.67,-43.31l0 0c-18.92,-26.81 -59.72,-60.08 -120.08,-91.35l0 0c-51.23,-26.82 -115.96,-52.65 -191.64,-76.17 33.39,-33.51 63.98,-68.65 91.58,-105.21zm-2638.75 40.29c11.23,43.03 -14.51,86.97 -57.5,98.18l0 0 0 -0.03c-193.81,50.44 -348.7,110.9 -448.78,172.91l0 0c-50.08,30.82 -85.97,61.95 -106.94,88.84l0 0c-10.55,13.45 -17.44,25.71 -21.59,36.49l0 0c-4.22,10.8 -5.86,20.1 -5.9,29.46l0 0c0.04,9.34 1.68,18.66 5.9,29.44l0 0c7.63,20.11 25.68,45.96 57.62,73.84l0 0c55.47,49.13 151.27,101.91 278.04,149.07l0 0c190.25,71.31 449.69,132.05 753.19,174.28l0 0c303.55,42.27 651.57,66.38 1021.22,66.38l0 0c600.7,0.07 1144.74,-63.94 1532.77,-165.38l0 0c193.83,-50.39 348.69,-110.88 448.8,-172.85l0 0c50.06,-30.83 85.98,-61.95 106.92,-88.85l0 0c10.55,-13.44 17.44,-25.7 21.62,-36.48l0 0c4.18,-10.78 5.86,-20.11 5.89,-29.44l0 0c-0.03,-9.23 -1.67,-18.4 -5.73,-29.05l0 0c-6.95,-18.37 -22.49,-41.64 -49.74,-67.02l0 0c-40.64,-38.12 -106.5,-79.51 -193.28,-118.34l0 0c-86.68,-38.97 -194.1,-75.88 -318.1,-108.92l0 0c-42.93,-11.48 -68.43,-55.56 -56.95,-98.46l0 0c11.42,-42.93 55.51,-68.43 98.43,-56.98l0 0c198.72,53.18 361.37,115.8 480.62,190.32l0 0c59.56,37.48 108.78,78.03 145.47,125.29l0 0c18.24,23.66 33.27,49.1 43.79,76.55l0 0c10.55,27.38 16.42,56.79 16.38,86.61l0 0c0.04,30.24 -5.99,60.07 -16.83,87.78l0 0c-20.43,52.19 -56.27,96.65 -101.45,136.46l0 0c-79.45,69.3 -189.97,126.97 -327.82,178.81l0 0c-206.63,77.22 -475.34,139.39 -787.36,182.89l0 0c-311.9,43.43 -666.73,67.91 -1043.42,67.91l0 0c-612.35,-0.09 -1166.49,-64.42 -1573.43,-170.56l0 0c-203.64,-53.31 -370.39,-116.45 -492.62,-191.64l0 0c-61.08,-37.81 -111.46,-78.75 -149.07,-126.45l0 0c-18.67,-23.88 -34.11,-49.62 -44.9,-77.42l0 0c-10.84,-27.72 -16.85,-57.54 -16.83,-87.78l0 0c-0.02,-30.24 5.99,-60.1 16.83,-87.8l0 0c19.02,-48.75 51.55,-90.74 92.48,-128.38l0 0c61.65,-56.47 143.32,-104.68 242.99,-148.85l0 0c99.69,-43.99 217.52,-83.41 351.12,-118.29l0 0c6.82,-1.77 13.67,-2.63 20.4,-2.63l0 0c35.72,0 68.34,23.97 77.77,60.1z"/>
   <path class="fil1" d="M20583.95 6730.84c44.31,-125.78 64.91,-259.87 61.47,-392.75l0 0c-3.31,-132.9 -30.61,-264.24 -80.22,-384.81l0 0c-40.29,-98.31 -95.37,-189.21 -161.73,-269.1l0 0c-66.37,79.89 -121.47,170.79 -161.75,269.1l0 0c-49.59,120.57 -76.92,251.91 -80.22,384.81l0 0c-3.45,132.88 17.16,266.97 61.46,392.75l0 0c41.07,117 102.68,226.45 180.51,321.98l0 0c77.81,-95.53 139.41,-204.98 180.48,-321.98l0 0z"/>
   <path class="fil2" d="M20444.57 5542.58c93.39,108.2 166.68,234.8 214.71,370.81l0 0c48.19,135.95 70.76,281.13 67.3,424.7l0 0c-3.28,143.57 -32.58,286 -86.06,416.73l0 0c-53.32,130.84 -130.43,249.89 -225.15,349.27l0 0 -11.9 12.48 -11.92 -12.48c-94.73,-99.38 -171.84,-218.43 -225.15,-349.27l0 0c-53.47,-130.73 -82.79,-273.16 -86.07,-416.73l0 0c-3.46,-143.56 19.11,-288.75 67.32,-424.7l0 0c48,-136.01 121.3,-262.6 214.69,-370.81l0 0 41.13 -47.64 41.1 47.64z"/>
   <path class="fil3" d="M19560.94 5850.58c137.4,19.51 270.63,66.74 390.2,138.33l0 0c43.15,25.77 84.35,54.85 123.51,86.63 -16.09,87.52 -23.11,176.66 -20.98,265.21l0 0c3.56,155.43 35.28,309.6 93.17,451.12l0 0c37.54,92.14 86,178.88 143.49,257.87 -70.42,-19.62 -139.13,-46.94 -204.56,-81.72l0 0c-120.55,-63.85 -229.68,-153.08 -319.61,-260.82l0 0c-90.03,-107.61 -161.12,-234.16 -206.94,-371.01l0 0c-46.04,-136.79 -66.95,-283.52 -61.28,-429.8l0 0 2.52 -64.39 60.49 8.57z"/>
   <path class="fil4" d="M20320.21 7089.05c7.68,9.68 15.5,19.23 23.45,28.65 -60.89,29.01 -124.49,52.09 -189.86,68.4l0 0c-131.2,32.89 -269.12,38.62 -403.6,17.12l0 0c-134.48,-21.33 -265.96,-70.03 -384.4,-143.73l0 0c-118.49,-73.57 -223.85,-171.75 -308.55,-287.67l0 0 -37.28 -51.02 51.57 -34.49c117.12,-78.32 247.92,-132.57 383.11,-158.88l0 0c46.32,-9.09 93.13,-14.78 140.03,-17.29 37.23,68.27 78.79,133.09 123.28,190.05 148.65,190.3 343.72,309.08 602.26,388.87z"/>
   <path class="fil5" d="M19977.05 5614.31c7.86,4.35 15.66,8.8 23.41,13.34l0 0 3.32 1.96 0 0 3.31 1.96 3.3 1.98 0.01 0 3.29 2 0 0 3.29 2 3.29 2.02 0 0 3.28 2.03 0 0 3.27 2.04 0 0 0.74 0.46c1.93,1.22 3.86,2.43 5.78,3.65l0 0c3.25,2.07 6.49,4.16 9.71,6.27l0.01 0c4.3,2.8 8.59,5.64 12.85,8.51l0.01 0 3.19 2.16 0 0 3.19 2.17 0.01 0c13.8,9.43 27.4,19.17 40.77,29.22l0.01 0c10.28,7.74 20.44,15.66 30.46,23.76l0 0 3 2.44 0.01 0 2.99 2.45 0 0 2.98 2.46 0.01 0c1.98,1.64 3.97,3.29 5.94,4.95l0.01 0 2.95 2.49 0.01 0 2.95 2.5 0 0 2.95 2.51 0 0 2.93 2.52 0.01 0.01 2.92 2.53 0 0 2.92 2.54 0 0 2.91 2.56 0.01 0 2.9 2.56 0 0c1.93,1.72 3.86,3.43 5.78,5.16l-0.01 0 0.01 0c-48.81,119.02 -44.56,95.7 -97.7,290.61 -89.01,-57 -152.52,-102.99 -249,-143.98 6.79,-45.84 16.19,-91.31 28.19,-136.08l0 0 1.1 -4.07 0 0 1.11 -4.07 0.01 0 1.12 -4.06 0 0 1.14 -4.06 1.16 -4.05 1.17 -4.05 1.18 -4.05 0 0 1.2 -4.04 0 0 1.21 -4.04 0 0 1.22 -4.03 0 0 1.24 -4.03 0 0 1.26 -4.02 0 0 1.26 -4.02 0.01 0 1.28 -4.01 0 0c1.29,-4.02 2.6,-8.02 3.93,-12.01l0 0c1.78,-5.33 3.59,-10.64 5.44,-15.94l0 0 1.39 -3.98 0 0 1.41 -3.97 0 0 1.42 -3.96 1.44 -3.96 0 0 1.45 -3.95 0 0 1.47 -3.95 1.48 -3.95 1.49 -3.94 1.5 -3.93 1.52 -3.93 0.01 0 23.2 -59.59 0.01 0.01 0 -0.01 54.06 29.89zm50.49 29.78c1.93,1.22 3.86,2.43 5.78,3.65zm-133.54 -3.74l0 0 23.21 -59.58z"/>
   <path class="fil6" d="M19500.97 6196.55c36.2,180.79 41.26,173.61 81.81,286.62 0.08,0.25 -74.23,8.9 -140.74,23.72 -52.05,11.6 -96.65,25.25 -131.04,37.12l0 0c-44.05,-77.04 -79.68,-159.71 -105.65,-245.92l0 0 -18.49 -61.42 59.62 -13.78c76.62,-17.71 154.85,-26.57 232.89,-26.57l0 0c7.21,0 14.41,0.07 21.61,0.23l0 0z"/>
   <path class="fil7" d="M20907.16 5644.01c32.56,83.68 55.63,171.2 68.77,260.1 -96.48,41 -159.99,86.98 -249,143.98 -53.14,-194.91 -48.88,-171.59 -97.7,-290.61 61.43,-55.23 128.81,-103.43 200.66,-143.18l0 0 54.06 -29.89 23.21 59.59z"/>
   <path class="fil8" d="M21560.46 6222.89l59.61 13.78 -18.49 61.42c-25.97,86.21 -61.59,168.88 -105.63,245.92l0 0 -3.01 -1.04 -0.59 1.04 0 0c-34.39,-11.86 -78.99,-25.51 -131.04,-37.11 -66.51,-14.83 -140.82,-23.48 -140.74,-23.73 29.15,-81.25 39.96,-100.38 57.18,-171.91l-0.58 0c0.95,-3.14 1.89,-6.28 2.82,-9.43 6.21,-26.54 13.32,-60.02 22.39,-105.28l0 0c7.2,-0.15 14.4,-0.23 21.61,-0.23l0 0 0.88 0 0.34 0 2.37 0 0 0c78.05,0 156.27,8.86 232.89,26.57l0 0z"/>
   <path class="fil9" d="M21245.98 5850.58c-137.4,19.51 -270.63,66.74 -390.2,138.33l0 0c-43.16,25.77 -84.36,54.85 -123.51,86.63 16.08,87.52 23.11,176.66 20.97,265.21l0 0c-3.56,155.43 -35.28,309.6 -93.15,451.12l0 0c-37.55,92.14 -86.01,178.88 -143.51,257.87 70.42,-19.62 139.13,-46.94 204.56,-81.72l0 0c120.55,-63.85 229.69,-153.08 319.61,-260.82l0 0c90.03,-107.61 161.12,-234.16 206.95,-371.01l0 0c46.03,-136.79 66.95,-283.52 61.27,-429.8l0 0 -2.51 -64.39 -60.49 8.57z"/>
   <path class="fil10" d="M20486.71 7089.05c-7.68,9.68 -15.49,19.23 -23.45,28.65 60.9,29.01 124.49,52.09 189.86,68.4l0 0c131.21,32.89 269.13,38.62 403.61,17.12l0 0c134.48,-21.33 265.96,-70.03 384.4,-143.73l0 0c118.49,-73.57 223.85,-171.75 308.55,-287.67l0 0 37.28 -51.02 -51.57 -34.49c-117.12,-78.32 -247.92,-132.57 -383.11,-158.88l0 0c-46.32,-9.09 -93.13,-14.78 -140.03,-17.29 -37.24,68.27 -78.79,133.09 -123.28,190.05 -148.65,190.3 -343.73,309.08 -602.27,388.87z"/>
   <path class="fil11" d="M22465.33 3970.09c62.08,21.47 114.68,45.76 156.32,73.54l0 0c27.96,18.83 51.24,39.33 68.62,63.28l0 0c17.29,23.78 28.46,52.17 28.42,82.27l0 0c0.04,30.48 -11.44,59.26 -29.17,83.26l0 0c-15.57,21.19 -35.82,39.64 -59.78,56.67l0 0c-42,29.66 -95.88,55.14 -160.28,77.83l0 0c-96.51,33.83 -216.73,60.94 -353.66,79.8l0 0c-136.9,18.85 -290.4,29.4 -452.61,29.4l0 0c-282.59,-0.09 -538.34,-31.81 -726.8,-84.34l0 0c-94.35,-26.48 -171.88,-57.79 -229.22,-95.53l0 0c-28.67,-18.93 -52.51,-39.66 -70.3,-63.84l0 0c-17.71,-24 -29.21,-52.77 -29.15,-83.26l0 0c-0.06,-30.56 11.44,-59.29 29.15,-83.29l0 0c26.83,-36.2 66.74,-64.93 117.05,-90.98l0 0c29.65,-15.22 63.26,-29.28 100.28,-42.33 19.22,25.21 40.47,49.44 63.67,72.53 -68.74,21.81 -124.05,46.5 -161.54,71.37l0 0c-22.48,14.8 -38.36,29.57 -47.49,42.13l0 0c-9.22,12.78 -11.81,22.08 -11.93,30.56l0 0c0.12,8.45 2.72,17.77 11.93,30.52l0 0c8.01,10.98 21.12,23.67 39.39,36.58l0 0c31.89,22.69 79.14,45.75 138.25,66.45l0 0c88.65,31.16 203.89,57.43 336.27,75.64l0 0c132.42,18.22 282.08,28.55 440.44,28.55l0 0c0.25,0 0.54,0 0.78,0l0 0c275.41,0 524.78,-31.49 702.02,-81.05 88.58,-24.66 159.12,-54.18 204.06,-84.03l0 0c22.48,-14.78 38.36,-29.55 47.48,-42.14l0 0c9.22,-12.75 11.85,-22.08 11.94,-30.52l0 0c-0.09,-8.37 -2.66,-17.51 -11.56,-30.02l0 0c-13.11,-18.58 -41.39,-41.65 -83.24,-63.33l0 0c-35.5,-18.58 -80.37,-36.49 -132.83,-52.79 23.15,-23.23 44.35,-47.6 63.49,-72.94zm-1829.13 27.94c7.79,29.82 -10.06,60.29 -39.86,68.04l0 0 0 -0.01c-134.34,34.96 -241.7,76.88 -311.08,119.86l0 0c-34.72,21.36 -59.6,42.94 -74.14,61.58l0 0c-7.31,9.33 -12.08,17.82 -14.96,25.3l0 0c-2.92,7.5 -4.06,13.93 -4.08,20.43l0 0c0.02,6.47 1.16,12.93 4.08,20.41l0 0c5.29,13.94 17.8,31.85 39.95,51.18l0 0c38.45,34.06 104.85,70.64 192.73,103.34l0 0c131.88,49.42 311.73,91.53 522.1,120.8l0 0c210.41,29.3 451.65,46.02 707.88,46.02l0 0c416.39,0.05 793.52,-44.32 1062.48,-114.64l0 0c134.36,-34.93 241.7,-76.86 311.1,-119.82l0 0c34.7,-21.37 59.6,-42.94 74.12,-61.59l0 0c7.31,-9.32 12.08,-17.81 14.98,-25.29l0 0c2.9,-7.48 4.06,-13.94 4.08,-20.41l0 0c-0.02,-6.4 -1.15,-12.76 -3.97,-20.14l0 0c-4.82,-12.73 -15.59,-28.86 -34.48,-46.47l0 0c-28.17,-26.43 -73.82,-55.11 -133.98,-82.03l0 0c-60.09,-27.02 -134.54,-52.6 -220.49,-75.5l0 0c-29.75,-7.97 -47.44,-38.52 -39.48,-68.25l0 0c7.92,-29.75 38.48,-47.44 68.23,-39.5l0 0c137.74,36.87 250.49,80.27 333.15,131.93l0 0c41.29,25.98 75.41,54.08 100.84,86.85l0 0c12.65,16.39 23.07,34.03 30.35,53.05l0 0c7.32,18.98 11.38,39.37 11.35,60.05l0 0c0.03,20.97 -4.15,41.64 -11.66,60.85l0 0c-14.16,36.17 -39.01,66.99 -70.32,94.59l0 0c-55.06,48.04 -131.68,88.01 -227.23,123.95l0 0c-143.24,53.53 -329.5,96.62 -545.78,126.77l0 0c-216.2,30.1 -462.16,47.09 -723.28,47.09l0 0c-424.47,-0.07 -808.59,-44.66 -1090.67,-118.24l0 0c-141.16,-36.95 -256.74,-80.72 -341.47,-132.84l0 0c-42.34,-26.21 -77.26,-54.58 -103.34,-87.65l0 0c-12.94,-16.55 -23.65,-34.39 -31.11,-53.66l0 0c-7.52,-19.21 -11.68,-39.88 -11.66,-60.85l0 0c-0.02,-20.97 4.15,-41.67 11.66,-60.87l0 0c13.18,-33.79 35.73,-62.9 64.1,-88.99l0 0c42.74,-39.14 99.35,-72.55 168.44,-103.19l0 0c69.1,-30.48 150.78,-57.81 243.38,-81.99l0 0c4.73,-1.23 9.49,-1.83 14.14,-1.83l0 0c24.76,0 47.38,16.62 53.91,41.67z"/>
   <path class="fil12" d="M21783.93 3976.73c30.71,-87.18 45,-180.14 42.61,-272.25l0 0c-2.29,-92.12 -21.22,-183.16 -55.6,-266.74l0 0c-27.94,-68.14 -66.11,-131.15 -112.11,-186.53l0 0c-46,55.38 -84.2,118.39 -112.11,186.53l0 0c-34.38,83.58 -53.32,174.62 -55.61,266.74l0 0c-2.39,92.11 11.9,185.06 42.61,272.25l0 0c28.47,81.11 71.16,156.98 125.11,223.19l0 0c53.94,-66.22 96.64,-142.09 125.1,-223.19l0 0z"/>
   <path class="fil13" d="M21687.32 3153.05c64.74,75.01 115.54,162.76 148.83,257.05l0 0c33.4,94.23 49.05,194.88 46.66,294.39l0 0c-2.28,99.53 -22.6,198.25 -59.66,288.87l0 0c-36.96,90.7 -90.41,173.22 -156.07,242.1l0 0 -8.26 8.66 -8.27 -8.66c-65.66,-68.88 -119.11,-151.4 -156.07,-242.1l0 0c-37.07,-90.62 -57.38,-189.34 -59.66,-288.87l0 0c-2.4,-99.51 13.25,-200.16 46.67,-294.39l0 0c33.28,-94.28 84.09,-182.03 148.82,-257.05l0 0 28.51 -33.01 28.5 33.01z"/>
   <path class="fil14" d="M21074.8 3366.56c95.25,13.52 187.59,46.26 270.48,95.88l0 0c29.91,17.86 58.47,38.03 85.62,60.06 -11.15,60.67 -16.02,122.46 -14.54,183.83l0 0c2.46,107.74 24.46,214.61 64.59,312.71l0 0c26.02,63.88 59.6,124.01 99.47,178.76 -48.81,-13.6 -96.44,-32.53 -141.8,-56.65l0 0c-83.57,-44.26 -159.22,-106.1 -221.55,-180.8l0 0c-62.41,-74.59 -111.68,-162.32 -143.46,-257.18l0 0c-31.9,-94.82 -46.41,-196.53 -42.47,-297.91l0 0 1.74 -44.65 41.93 5.95z"/>
   <path class="fil15" d="M21601.12 4225.04c5.32,6.72 10.73,13.33 16.25,19.86 -42.21,20.11 -86.29,36.11 -131.61,47.42l0 0c-90.95,22.8 -186.55,26.78 -279.76,11.86l0 0c-93.22,-14.78 -184.36,-48.54 -266.46,-99.63l0 0c-82.14,-51 -155.17,-119.06 -213.88,-199.41l0 0 -25.85 -35.37 35.75 -23.92c81.19,-54.28 171.85,-91.89 265.57,-110.12l0 0c32.1,-6.3 64.56,-10.24 97.06,-11.98 25.81,47.33 54.61,92.25 85.45,131.73 103.05,131.92 238.27,214.25 417.48,269.56z"/>
   <path class="fil16" d="M21363.24 3202.79c5.45,3.01 10.85,6.1 16.22,9.25l0 0 2.3 1.36 0 0 2.3 1.36 2.29 1.37 0 0 2.29 1.39 0 0 2.28 1.39 2.27 1.39 0 0 2.28 1.41 0 0 2.26 1.41 0 0 0.52 0.33c1.34,0.84 2.67,1.68 4,2.53l0 0c2.26,1.43 4.51,2.88 6.75,4.34l0 0c2.98,1.94 5.96,3.91 8.91,5.9l0.01 0 2.21 1.5 0.01 0 2.2 1.5 0.01 0c9.56,6.53 18.99,13.28 28.27,20.26l0 0c7.13,5.36 14.17,10.85 21.12,16.47l0 0 2.08 1.69 0 0 2.08 1.7 0 0 2.07 1.7 0 0c1.38,1.14 2.75,2.28 4.12,3.43l0 0 2.05 1.73 0.01 0 2.04 1.73 0.01 0 2.03 1.74 0.01 0.01 2.03 1.74 0 0 2.03 1.76 0 0 2.02 1.76 0.01 0 2.01 1.77 0 0 2.02 1.78 0 0c1.33,1.19 2.67,2.38 4,3.58l0 0 0 0c-33.83,82.5 -30.88,66.34 -67.71,201.43 -61.71,-39.51 -105.72,-71.38 -172.6,-99.8 4.7,-31.77 11.21,-63.3 19.53,-94.33l0.01 0 0.76 -2.82 0 0 0.77 -2.82 0 0 0.78 -2.82 0 0 0.79 -2.81 0.8 -2.81 0.81 -2.81 0.82 -2.8 0 0 0.83 -2.81 0 0 0.84 -2.79 0 0 0.85 -2.8 0 0 0.86 -2.79 0 0 0.87 -2.79 0 0 0.88 -2.79 0 0 0.89 -2.78 0 0c0.89,-2.78 1.8,-5.56 2.72,-8.33l0 0c1.23,-3.69 2.49,-7.38 3.77,-11.04l0 0 0.97 -2.76 0 0 0.97 -2.75 0 0 0.99 -2.75 1 -2.74 0 0 1 -2.74 0 0 1.02 -2.74 1.02 -2.74 1.04 -2.73 1.04 -2.72 1.06 -2.72 0 0 16.08 -41.31 0.01 0 0 0 37.47 20.72zm35 20.65c1.34,0.84 2.67,1.68 4,2.53zm-92.56 -2.59l0 0 16.09 -41.31z"/>
   <path class="fil17" d="M21033.23 3606.37c25.09,125.31 28.6,120.35 56.7,198.68 0.06,0.18 -51.45,6.17 -97.55,16.45 -36.08,8.04 -66.99,17.5 -90.84,25.73l0 0c-30.53,-53.4 -55.23,-110.7 -73.23,-170.47l0 0 -12.82 -42.57 41.33 -9.56c53.11,-12.27 107.33,-18.42 161.44,-18.42l0 0c4.99,0 9.99,0.05 14.98,0.16l0 0z"/>
   <path class="fil18" d="M22007.97 3223.37c22.57,58 38.57,118.67 47.68,180.3 -66.88,28.42 -110.9,60.29 -172.6,99.8 -36.84,-135.1 -33.88,-118.94 -67.72,-201.43 42.58,-38.29 89.28,-71.69 139.09,-99.25l0 0 37.48 -20.72 16.08 41.31z"/>
   <path class="fil19" d="M22460.83 3624.64l41.33 9.56 -12.82 42.57c-18,59.77 -42.7,117.07 -73.23,170.47l0 0 -2.08 -0.72 -0.41 0.72 0 0c-23.84,-8.23 -54.75,-17.68 -90.83,-25.73 -46.11,-10.28 -97.61,-16.27 -97.56,-16.44 20.21,-56.33 27.7,-69.58 39.64,-119.17l-0.41 0c0.67,-2.18 1.32,-4.35 1.96,-6.54 4.31,-18.39 9.24,-41.6 15.52,-72.98l0 0c4.99,-0.1 9.98,-0.15 14.97,-0.15l0 0 0.62 0 0.23 0 1.64 -0.01 0 0c54.1,0 108.32,6.15 161.44,18.42l0 0z"/>
   <path class="fil20" d="M22242.84 3366.56c-95.24,13.52 -187.59,46.26 -270.48,95.88l0 0c-29.91,17.86 -58.47,38.03 -85.61,60.06 11.14,60.67 16.01,122.46 14.53,183.83l0 0c-2.47,107.74 -24.46,214.61 -64.58,312.71l0 0c-26.03,63.88 -59.61,124.01 -99.48,178.76 48.81,-13.6 96.44,-32.53 141.81,-56.65l0 0c83.56,-44.26 159.21,-106.1 221.54,-180.8l0 0c62.41,-74.59 111.68,-162.32 143.46,-257.18l0 0c31.9,-94.82 46.41,-196.53 42.47,-297.91l0 0 -1.74 -44.65 -41.93 5.95z"/>
   <path class="fil21" d="M21716.53 4225.04c-5.32,6.72 -10.73,13.33 -16.25,19.86 42.21,20.11 86.29,36.11 131.61,47.42l0 0c90.95,22.8 186.55,26.78 279.77,11.86l0 0c93.21,-14.78 184.35,-48.54 266.45,-99.63l0 0c82.14,-51 155.17,-119.06 213.88,-199.41l0 0 25.85 -35.37 -35.75 -23.92c-81.19,-54.28 -171.85,-91.89 -265.56,-110.12l0 0c-32.11,-6.3 -64.56,-10.24 -97.06,-11.98 -25.82,47.33 -54.62,92.25 -85.46,131.73 -103.05,131.92 -238.27,214.25 -417.48,269.56z"/>
   <path class="fil22" d="M25626.89 5438.69c75.01,25.95 138.56,55.29 188.86,88.86l0 0c33.79,22.75 61.93,47.51 82.93,76.44l0 0c20.88,28.73 34.38,63.05 34.32,99.4l0 0c0.06,36.83 -13.82,71.6 -35.24,100.6l0 0c-18.82,25.61 -43.29,47.88 -72.23,68.47l0 0c-50.74,35.84 -115.85,66.62 -193.65,94.03l0 0c-116.6,40.87 -261.86,73.62 -427.3,96.42l0 0c-165.4,22.77 -350.87,35.52 -546.86,35.52l0 0c-341.44,-0.11 -650.43,-38.44 -878.14,-101.9l0 0c-114,-31.99 -207.67,-69.82 -276.96,-115.42l0 0c-34.62,-22.88 -63.44,-47.92 -84.95,-77.13l0 0c-21.39,-28.99 -35.29,-63.77 -35.22,-100.6l0 0c-0.07,-36.92 13.83,-71.63 35.22,-100.63l0 0c32.42,-43.74 80.63,-78.45 141.44,-109.92l0 0c35.83,-18.39 76.43,-35.39 121.16,-51.14 23.22,30.45 48.89,59.73 76.92,87.63 -83.06,26.35 -149.87,56.17 -195.17,86.23l0 0c-27.17,17.89 -46.36,35.73 -57.38,50.9l0 0c-11.13,15.44 -14.27,26.68 -14.41,36.92l0 0c0.14,10.21 3.28,21.48 14.41,36.89l0 0c9.67,13.25 25.53,28.59 47.6,44.2l0 0c38.53,27.41 95.61,55.26 167.03,80.28l0 0c107.11,37.65 246.35,69.39 406.3,91.38l0 0c159.99,22.02 340.82,34.5 532.15,34.5l0 0c0.3,0 0.65,0 0.94,0l0 0c332.76,0 634.05,-38.06 848.21,-97.94 107.03,-29.78 192.25,-65.46 246.55,-101.52l0 0c27.17,-17.86 46.36,-35.71 57.37,-50.9l0 0c11.13,-15.41 14.32,-26.68 14.42,-36.89l0 0c-0.1,-10.1 -3.21,-21.15 -13.96,-36.27l0 0c-15.84,-22.45 -50.01,-50.32 -100.57,-76.51l0 0c-42.9,-22.46 -97.11,-44.1 -160.5,-63.8 27.97,-28.07 53.58,-57.5 76.71,-88.12zm-2210.02 33.75c9.42,36.03 -12.15,72.83 -48.15,82.22l0 0 0 -0.02c-162.32,42.25 -292.04,92.88 -375.85,144.81l0 0c-41.95,25.82 -72,51.88 -89.57,74.4l0 0c-8.84,11.27 -14.6,21.54 -18.08,30.56l0 0c-3.53,9.06 -4.91,16.84 -4.93,24.69l0 0c0.02,7.82 1.4,15.63 4.93,24.66l0 0c6.39,16.84 21.51,38.49 48.26,61.85l0 0c46.46,41.15 126.68,85.35 232.87,124.84l0 0c159.34,59.73 376.63,110.6 630.81,145.96l0 0c254.23,35.4 545.7,55.59 855.28,55.59l0 0c503.11,0.06 958.75,-53.54 1283.73,-138.52l0 0c162.34,-42.2 292.04,-92.86 375.87,-144.76l0 0c41.93,-25.82 72,-51.87 89.55,-74.41l0 0c8.84,-11.25 14.6,-21.53 18.11,-30.55l0 0c3.5,-9.03 4.91,-16.84 4.93,-24.66l0 0c-0.02,-7.74 -1.4,-15.41 -4.8,-24.34l0 0c-5.82,-15.39 -18.84,-34.87 -41.66,-56.13l0 0c-34.03,-31.93 -89.2,-66.6 -161.88,-99.12l0 0c-72.6,-32.63 -162.57,-63.55 -266.42,-91.22l0 0c-35.95,-9.62 -57.32,-46.54 -47.7,-82.47l0 0c9.56,-35.94 46.49,-57.31 82.44,-47.72l0 0c166.43,44.54 302.65,96.98 402.53,159.39l0 0c49.88,31.4 91.1,65.36 121.84,104.95l0 0c15.27,19.81 27.87,41.13 36.67,64.11l0 0c8.84,22.94 13.74,47.57 13.72,72.55l0 0c0.02,25.33 -5.02,50.3 -14.1,73.51l0 0c-17.11,43.72 -47.13,80.96 -84.97,114.29l0 0c-66.54,58.05 -159.11,106.34 -274.55,149.75l0 0c-173.07,64.68 -398.11,116.74 -659.44,153.18l0 0c-261.21,36.38 -558.4,56.89 -873.89,56.89l0 0c-512.85,-0.09 -976.96,-53.96 -1317.78,-142.86l0 0c-170.55,-44.66 -310.2,-97.53 -412.57,-160.51l0 0c-51.15,-31.66 -93.35,-65.95 -124.85,-105.9l0 0c-15.64,-20 -28.58,-41.56 -37.6,-64.85l0 0c-9.09,-23.21 -14.11,-48.18 -14.09,-73.51l0 0c-0.02,-25.34 5.01,-50.34 14.09,-73.54l0 0c15.93,-40.83 43.18,-76 77.45,-107.52l0 0c51.63,-47.3 120.04,-87.66 203.52,-124.67l0 0c83.49,-36.83 182.17,-69.84 294.06,-99.06l0 0c5.72,-1.48 11.45,-2.21 17.09,-2.21l0 0c29.91,0 57.24,20.08 65.13,50.34z"/>
   <path class="fil23" d="M24803.61 5446.7c37.1,-105.33 54.36,-217.65 51.47,-328.94l0 0c-2.76,-111.3 -25.64,-221.3 -67.17,-322.28l0 0c-33.75,-82.33 -79.88,-158.47 -135.45,-225.37l0 0c-55.58,66.91 -101.73,143.05 -135.47,225.37l0 0c-41.53,100.98 -64.42,210.98 -67.18,322.28l0 0c-2.89,111.29 14.37,223.6 51.48,328.94l0 0c34.38,98 85.99,189.67 151.17,269.67l0 0c65.17,-80 116.75,-171.67 151.15,-269.67l0 0z"/>
   <path class="fil24" d="M24686.87 4451.51c78.23,90.62 139.61,196.65 179.84,310.56l0 0c40.36,113.86 59.26,235.47 56.36,355.69l0 0c-2.75,120.26 -27.29,239.53 -72.07,349.03l0 0c-44.66,109.58 -109.23,209.29 -188.57,292.52l0 0 -9.96 10.45 -9.99 -10.45c-79.33,-83.23 -143.91,-182.93 -188.56,-292.52l0 0c-44.79,-109.49 -69.33,-228.77 -72.08,-349.03l0 0c-2.9,-120.23 16.01,-241.83 56.38,-355.69l0 0c40.21,-113.91 101.6,-219.94 179.81,-310.56l0 0 34.45 -39.89 34.41 39.89z"/>
   <path class="fil25" d="M23946.82 4709.47c115.08,16.34 226.65,55.9 326.8,115.85l0 0c36.14,21.59 70.64,45.95 103.44,72.57 -13.47,73.3 -19.35,147.94 -17.56,222.11l0 0c2.97,130.17 29.54,259.29 78.03,377.82l0 0c31.44,77.17 72.01,149.82 120.18,215.97 -58.98,-16.42 -116.52,-39.3 -171.32,-68.43l0 0c-100.96,-53.47 -192.37,-128.2 -267.68,-218.45l0 0c-75.41,-90.13 -134.94,-196.12 -173.33,-310.73l0 0c-38.55,-114.56 -56.07,-237.46 -51.31,-359.96l0 0 2.1 -53.93 50.66 7.18z"/>
   <path class="fil26" d="M24582.73 5746.73c6.43,8.11 12.97,16.1 19.64,23.99 -51,24.3 -104.28,43.63 -159.02,57.29l0 0c-109.89,27.55 -225.39,32.34 -338.03,14.34l0 0c-112.62,-17.87 -222.74,-58.66 -321.93,-120.39l0 0c-99.24,-61.62 -187.48,-143.84 -258.41,-240.92l0 0 -31.22 -42.74 43.19 -28.89c98.09,-65.59 207.64,-111.02 320.86,-133.06l0 0c38.79,-7.61 78,-12.37 117.28,-14.47 31.18,57.18 65.99,111.46 103.25,159.17 124.49,159.38 287.88,258.85 504.41,325.69z"/>
   <path class="fil27" d="M24295.32 4511.59c6.58,3.65 13.11,7.37 19.6,11.17l0 0 2.78 1.64 0 0 2.78 1.65 2.76 1.66 0.01 0 2.76 1.67 0 0 2.75 1.68 2.76 1.69 0 0 2.74 1.69 0 0.01 2.74 1.7 0 0 0.62 0.4c1.62,1.01 3.23,2.03 4.84,3.05l0 0c2.72,1.74 5.44,3.48 8.15,5.25l0 0c3.61,2.35 7.2,4.73 10.76,7.13l0.01 0 2.67 1.8 0.01 0.01 2.66 1.81 0.01 0c11.56,7.9 22.95,16.05 34.15,24.48l0 0c8.62,6.49 17.12,13.11 25.52,19.9l0 0 2.51 2.04 0.01 0.01 2.5 2.04 0.01 0.01 2.49 2.05 0.01 0.01c1.66,1.37 3.32,2.75 4.98,4.14l0 0 2.48 2.09 0 0 2.47 2.09 0.01 0 2.46 2.11 0 0 2.46 2.11 0 0 2.45 2.12 0.01 0 2.44 2.13 0 0 2.44 2.14 0 0 2.43 2.15 0 0c1.62,1.44 3.23,2.87 4.84,4.32l0 0 0 0c-40.89,99.68 -37.32,80.15 -81.82,243.38 -74.55,-47.74 -127.74,-86.24 -208.55,-120.58 5.69,-38.4 13.56,-76.48 23.61,-113.98l0 0 0.92 -3.41 0.01 0 0.92 -3.4 0.01 0 0.94 -3.4 0 0 0.95 -3.4 0.97 -3.4 0.98 -3.39 0.99 -3.39 0 0 1 -3.38 0.01 0 1.01 -3.38 0 0 1.03 -3.38 0 0 1.03 -3.37 0.01 0 1.04 -3.38 0.01 0 1.06 -3.36 0 0 1.07 -3.36 0 0c1.08,-3.36 2.18,-6.72 3.29,-10.06l0 0c1.49,-4.46 3.01,-8.91 4.56,-13.34l0 0 1.17 -3.33 0 0 1.17 -3.33 0.01 0 1.19 -3.32 1.2 -3.32 0 0 1.22 -3.31 0 0 1.22 -3.31 1.24 -3.3 1.25 -3.3 1.26 -3.29 1.28 -3.29 0 0 19.43 -49.9 0.01 0 0 0 45.28 25.03zm42.29 24.96c1.62,1.01 3.23,2.03 4.84,3.05zm-111.84 -3.13l0 0 19.44 -49.9z"/>
   <path class="fil28" d="M23896.59 4999.23c30.32,151.41 34.56,145.4 68.51,240.05 0.07,0.21 -62.17,7.45 -117.87,19.87 -43.6,9.71 -80.94,21.14 -109.74,31.08l0 0c-36.9,-64.53 -66.75,-133.76 -88.49,-205.96l0 0 -15.49 -51.44 49.93 -11.54c64.18,-14.83 129.69,-22.25 195.06,-22.25l0 0c6.03,0 12.06,0.06 18.09,0.19l0 0z"/>
   <path class="fil29" d="M25074.3 4536.47c27.28,70.08 46.61,143.39 57.61,217.85 -80.81,34.33 -133.99,72.84 -208.55,120.58 -44.5,-163.23 -40.93,-143.7 -81.82,-243.38 51.44,-46.26 107.88,-86.62 168.05,-119.92l0 0 45.28 -25.03 19.43 49.9z"/>
   <path class="fil30" d="M25621.47 5021.28l49.92 11.54 -15.49 51.44c-21.75,72.2 -51.58,141.45 -88.47,205.96l0 0 -2.52 -0.87 -0.5 0.87 0 0c-28.79,-9.94 -66.15,-21.37 -109.74,-31.08 -55.7,-12.42 -117.94,-19.66 -117.87,-19.87 24.42,-68.05 33.46,-84.07 47.89,-143.97l-0.5 -0.01c0.8,-2.62 1.59,-5.25 2.37,-7.89 5.2,-22.23 11.15,-50.26 18.75,-88.18l0 0c6.03,-0.13 12.06,-0.19 18.09,-0.19l0 0 0.75 0 0.28 0 1.98 0 0 0c65.37,0 130.88,7.42 195.06,22.25l0 0z"/>
   <path class="fil31" d="M25358.07 4709.47c-115.07,16.34 -226.65,55.9 -326.79,115.85l0 0c-36.14,21.59 -70.65,45.95 -103.44,72.57 13.46,73.3 19.35,147.94 17.56,222.11l0 0c-2.98,130.17 -29.54,259.29 -78.02,377.82l0 0c-31.45,77.17 -72.03,149.82 -120.2,215.97 58.98,-16.42 116.53,-39.3 171.33,-68.43l0 0c100.96,-53.47 192.37,-128.2 267.68,-218.45l0 0c75.41,-90.13 134.94,-196.12 173.33,-310.73l0 0c38.55,-114.56 56.06,-237.46 51.31,-359.96l0 0 -2.11 -53.93 -50.66 7.18z"/>
   <path class="fil32" d="M24722.18 5746.73c-6.43,8.11 -12.97,16.1 -19.64,23.99 51,24.3 104.27,43.63 159.02,57.29l0 0c109.88,27.55 225.39,32.34 338.02,14.34l0 0c112.63,-17.87 222.75,-58.66 321.94,-120.39l0 0c99.24,-61.62 187.48,-143.84 258.41,-240.92l0 0 31.22 -42.74 -43.2 -28.89c-98.09,-65.59 -207.63,-111.02 -320.86,-133.06l0 0c-38.79,-7.61 -78,-12.37 -117.27,-14.47 -31.18,57.18 -65.99,111.46 -103.25,159.17 -124.49,159.38 -287.88,258.85 -504.41,325.69z"/>
   <path class="fil33" d="M12954.58 4982.4c-178.63,-507.06 -261.68,-1047.65 -247.81,-1583.36l0 0c13.32,-535.77 123.43,-1065.27 323.4,-1551.32l0 0c162.43,-396.31 384.45,-762.78 651.99,-1084.84l0 0c267.54,322.06 489.66,688.53 652.05,1084.84l0 0c199.92,486.05 310.09,1015.55 323.41,1551.32l0 0c13.88,535.71 -69.2,1076.3 -247.8,1583.36l0 0c-165.52,471.7 -413.89,912.94 -727.66,1298.06l0 0c-313.69,-385.12 -562.03,-826.36 -727.58,-1298.06l0 0z"/>
   <path class="fil34" d="M13516.46 192c-376.51,436.22 -671.96,946.58 -865.61,1494.89l0 0c-194.29,548.07 -285.28,1133.4 -271.32,1712.14l0 0c13.23,578.84 131.37,1152.99 346.92,1680.03l0 0c214.96,527.49 525.82,1007.42 907.71,1408.04l0 0 47.99 50.33 48.06 -50.33c381.88,-400.62 692.75,-880.55 907.67,-1408.04l0 0c215.59,-527.04 333.75,-1101.19 346.97,-1680.03l0 0c13.95,-578.75 -77.05,-1164.07 -271.4,-1712.14l0 0c-193.55,-548.31 -489.02,-1058.67 -865.5,-1494.89l0 0 -165.8 -192 -165.69 192z"/>
   <path class="fil35" d="M17078.74 1433.69c-553.91,78.65 -1091,269.05 -1573.03,557.65l0 0c-173.98,103.89 -340.07,221.14 -497.91,349.3 64.86,352.85 93.16,712.16 84.56,1069.15l0 0c-14.32,626.6 -142.23,1248.14 -375.61,1818.68l0 0c-151.34,371.47 -346.66,721.14 -578.5,1039.57 283.9,-79.07 560.89,-189.2 824.68,-329.42l0 0c485.98,-257.42 925.98,-617.13 1288.5,-1051.48l0 0c362.97,-433.85 649.53,-944.03 834.3,-1495.72l0 0c185.56,-551.44 269.88,-1142.98 247.01,-1732.66l0 0 -10.13 -259.6 -243.86 34.54z"/>
   <path class="fil36" d="M14017.82 6426.54c-30.95,39.02 -62.48,77.53 -94.54,115.47 245.49,116.97 501.9,210.02 765.41,275.76l0 0c528.96,132.59 1084.95,155.71 1627.12,69.03l0 0c542.13,-86 1072.21,-282.32 1549.66,-579.47l0 0c477.69,-296.59 902.46,-692.41 1243.9,-1159.7l0 0 150.29 -205.73 -207.92 -139.06c-472.15,-315.7 -999.45,-534.43 -1544.48,-640.5l0 0c-186.71,-36.6 -375.44,-59.59 -564.48,-69.67 -150.12,275.24 -317.63,536.55 -496.99,766.15 -599.27,767.19 -1385.71,1246.03 -2427.96,1567.72z"/>
   <path class="fil37" d="M15401.26 481.19c-31.66,17.54 -63.13,35.47 -94.36,53.8l0 0 -13.37 7.89 -0.01 0 -13.34 7.93 -13.31 7.99 -0.01 0 -13.28 8.03 0 0 -13.26 8.08 -13.23 8.13 0 0.01 -13.2 8.17 -0.01 0 -13.17 8.22 -0.01 0.01 -2.99 1.88c-7.77,4.88 -15.53,9.77 -23.28,14.7l0 0c-13.1,8.35 -26.17,16.75 -39.19,25.24l-0.01 0c-17.35,11.31 -34.63,22.75 -51.83,34.3l-0.02 0.01 -12.87 8.69 -0.02 0.01 -12.83 8.74 -0.02 0.01c-55.65,37.98 -110.46,77.26 -164.37,117.8l-0.03 0.02c-41.47,31.18 -82.42,63.12 -122.81,95.78l-0.02 0.01 -12.08 9.81 -0.02 0.01 -12.05 9.85 -0.02 0.01 -12.01 9.89 -0.02 0.01c-8.01,6.63 -15.99,13.26 -23.96,19.94l-0.02 0.01 -11.91 10.02 -0.02 0.02 -11.88 10.06 -0.02 0 -11.85 10.11 -0.01 0.02 -11.81 10.14 -0.02 0.02 -11.78 10.19 -0.02 0.01 -11.74 10.23 -0.02 0.01 -11.72 10.28 0 0.01 -11.69 10.32 0 0.01c-7.79,6.91 -15.55,13.82 -23.29,20.78l0.01 0.01 -0.01 0c196.8,479.79 179.62,385.79 393.83,1171.55 358.86,-229.79 614.9,-415.18 1003.84,-580.45 -27.34,-184.79 -65.27,-368.13 -113.63,-548.61l-0.01 0 -4.42 -16.4 -0.01 0 -4.47 -16.38 -0.01 0 -4.53 -16.37 -0.01 0 -4.59 -16.35 -4.66 -16.33 -4.72 -16.32 -4.76 -16.3 -0.01 0 -4.82 -16.28 -0.01 0 -4.87 -16.26 -0.01 0 -4.93 -16.25 -0.01 0 -4.99 -16.23 -0.01 0 -5.05 -16.21 0 0 -5.11 -16.19 -0.01 0 -5.16 -16.17 -0.01 0c-5.19,-16.17 -10.46,-32.31 -15.83,-48.41l0 0c-7.17,-21.48 -14.46,-42.91 -21.92,-64.28l0 0 -5.62 -16.02 0 0 -5.67 -15.99 -0.01 0 -5.73 -15.97 -5.79 -15.96 -0.01 0 -5.84 -15.93 -0.01 0 -5.9 -15.91 -5.96 -15.89 -6.02 -15.86 -6.07 -15.85 -6.13 -15.82 -0.01 0 -93.54 -240.23 -0.05 0.03 0 -0.03 -217.93 120.49zm-203.57 120.11c-7.77,4.88 -15.53,9.77 -23.28,14.7zm538.37 -15.06l0 0 -93.59 -240.2z"/>
   <path class="fil38" d="M17320.55 2828.43c-145.94,728.83 -166.33,699.92 -329.8,1155.5 -0.32,1.01 299.25,35.86 567.36,95.64 209.85,46.78 389.64,101.78 528.28,149.62l0 0c177.59,-310.56 321.24,-643.81 425.95,-991.39l0 0 74.55 -247.6 -240.34 -55.58c-308.91,-71.38 -624.26,-107.09 -938.89,-107.09l0 0c-29.03,0 -58.11,0.3 -87.11,0.91l0 0z"/>
   <path class="fil39" d="M11651.58 600.94c-131.29,337.32 -224.3,690.17 -277.28,1048.58 388.95,165.26 644.97,350.66 1003.84,580.45 214.22,-785.76 197.05,-691.76 393.83,-1171.55 -247.62,-222.67 -519.27,-416.95 -808.9,-577.23l0 0 -217.96 -120.49 -93.54 240.23z"/>
   <path class="fil40" d="M9017.82 2934.62l-240.31 55.59 74.54 247.59c104.72,347.57 248.32,680.84 425.9,991.39l0 0 12.12 -4.17 2.38 4.18 0 0c138.65,-47.83 318.43,-102.84 528.28,-149.62 268.12,-59.78 567.68,-94.62 567.36,-95.64 -117.53,-327.56 -161.09,-404.66 -230.54,-693.04l2.37 -0.01c-3.85,-12.63 -7.65,-25.29 -11.39,-37.98 -25.02,-106.98 -53.68,-241.96 -90.22,-424.47l0 0c-29.01,-0.61 -58.09,-0.91 -87.12,-0.91l0 0 -3.57 0.01 -1.36 0 -9.54 -0.01 0 0c-314.66,0 -629.99,35.69 -938.9,107.08l0 0z"/>
   <path class="fil41" d="M10285.63 1433.69c553.91,78.65 1091,269.05 1573.03,557.65l0 0c173.98,103.89 340.07,221.14 497.9,349.29 -64.83,352.85 -93.13,712.17 -84.53,1069.16l0 0c14.33,626.6 142.23,1248.14 375.55,1818.68l0 0c151.38,371.47 346.71,721.14 578.55,1039.57 -283.9,-79.07 -560.9,-189.2 -824.69,-329.42l0 0c-485.98,-257.42 -925.97,-617.13 -1288.5,-1051.48l0 0c-362.97,-433.85 -649.53,-944.03 -834.3,-1495.72l0 0c-185.56,-551.44 -269.88,-1142.98 -247.01,-1732.66l0 0 10.13 -259.6 243.86 34.54z"/>
   <path class="fil42" d="M13346.56 6426.54c30.94,39.02 62.47,77.53 94.54,115.47 -245.5,116.97 -501.91,210.02 -765.42,275.76l0 0c-528.96,132.59 -1084.95,155.71 -1627.11,69.03l0 0c-542.13,-86 -1072.21,-282.32 -1549.67,-579.47l0 0c-477.69,-296.59 -902.45,-692.41 -1243.89,-1159.7l0 0 -150.3 -205.73 207.92 -139.06c472.15,-315.7 999.46,-534.43 1544.48,-640.5l0 0c186.72,-36.6 375.45,-59.59 564.48,-69.67 150.12,275.24 317.64,536.55 496.99,766.15 599.28,767.19 1385.71,1246.03 2427.97,1567.72z"/>
   <path class="fil43" d="M5695.74 6721.27c-89.56,30.97 -165.44,66.01 -225.5,106.09l0 0c-40.35,27.16 -73.94,56.73 -99.01,91.28l0 0c-24.94,34.3 -41.06,75.26 -40.99,118.67l0 0c-0.07,43.99 16.5,85.5 42.08,120.12l0 0c22.47,30.57 51.68,57.18 86.24,81.76l0 0c60.59,42.8 138.32,79.55 231.22,112.27l0 0c139.22,48.8 312.66,87.9 510.18,115.12l0 0c197.5,27.2 418.95,42.42 652.96,42.42l0 0c407.68,-0.13 776.62,-45.89 1048.51,-121.67l0 0c136.11,-38.19 247.95,-83.37 330.68,-137.81l0 0c41.34,-27.32 75.74,-57.22 101.42,-92.09l0 0c25.55,-34.62 42.15,-76.13 42.06,-120.12l0 0c0.09,-44.08 -16.51,-85.53 -42.06,-120.15l0 0c-38.7,-52.22 -96.27,-93.66 -168.86,-131.25l0 0c-42.78,-21.96 -91.26,-42.25 -144.66,-61.07 -27.73,36.37 -58.38,71.33 -91.84,104.65 99.17,31.45 178.95,67.06 233.04,102.96l0 0c32.42,21.37 55.34,42.67 68.5,60.79l0 0c13.28,18.43 17.04,31.84 17.21,44.08l0 0c-0.17,12.19 -3.93,25.65 -17.21,44.05l0 0c-11.55,15.83 -30.47,34.14 -56.83,52.77l0 0c-46.01,32.72 -114.16,65.99 -199.44,95.85l0 0c-127.89,44.96 -294.15,82.86 -485.13,109.11l0 0c-191.02,26.29 -406.93,41.2 -635.39,41.2l0 0c-0.35,0 -0.77,0 -1.12,0l0 0c-397.31,0 -757.05,-45.45 -1012.76,-116.94 -127.8,-35.56 -229.54,-78.16 -294.39,-121.22l0 0c-32.43,-21.32 -55.34,-42.63 -68.49,-60.78l0 0c-13.29,-18.4 -17.09,-31.85 -17.22,-44.05l0 0c0.13,-12.06 3.83,-25.26 16.67,-43.31l0 0c18.92,-26.81 59.72,-60.08 120.08,-91.35l0 0c51.22,-26.82 115.95,-52.65 191.64,-76.17 -33.39,-33.51 -63.99,-68.65 -91.59,-105.21zm2638.76 40.29c-11.23,43.03 14.51,86.97 57.5,98.18l0 0 0 -0.03c193.8,50.44 348.69,110.9 448.77,172.91l0 0c50.09,30.82 85.98,61.95 106.95,88.84l0 0c10.55,13.45 17.44,25.71 21.59,36.49l0 0c4.22,10.8 5.86,20.1 5.89,29.46l0 0c-0.03,9.34 -1.67,18.66 -5.89,29.44l0 0c-7.63,20.11 -25.68,45.96 -57.63,73.84l0 0c-55.47,49.13 -151.26,101.91 -278.03,149.07l0 0c-190.26,71.31 -449.7,132.05 -753.19,174.28l0 0c-303.56,42.27 -651.57,66.38 -1021.22,66.38l0 0c-600.71,0.07 -1144.75,-63.94 -1532.77,-165.38l0 0c-193.83,-50.39 -348.7,-110.88 -448.8,-172.85l0 0c-50.06,-30.83 -85.98,-61.95 -106.92,-88.85l0 0c-10.55,-13.44 -17.44,-25.7 -21.63,-36.48l0 0c-4.18,-10.78 -5.86,-20.11 -5.88,-29.44l0 0c0.02,-9.23 1.67,-18.4 5.73,-29.05l0 0c6.95,-18.37 22.49,-41.64 49.74,-67.02l0 0c40.63,-38.12 106.5,-79.51 193.28,-118.34l0 0c86.68,-38.97 194.1,-75.88 318.1,-108.92l0 0c42.92,-11.48 68.43,-55.56 56.95,-98.46l0 0c-11.42,-42.93 -55.51,-68.43 -98.44,-56.98l0 0c-198.72,53.18 -361.37,115.8 -480.61,190.32l0 0c-59.57,37.48 -108.79,78.03 -145.47,125.29l0 0c-18.24,23.66 -33.27,49.1 -43.79,76.55l0 0c-10.55,27.38 -16.42,56.79 -16.38,86.61l0 0c-0.04,30.24 5.98,60.07 16.82,87.78l0 0c20.44,52.19 56.28,96.65 101.46,136.46l0 0c79.44,69.3 189.97,126.97 327.82,178.81l0 0c206.63,77.22 475.34,139.39 787.36,182.89l0 0c311.89,43.43 666.73,67.91 1043.42,67.91l0 0c612.35,-0.09 1166.49,-64.42 1573.43,-170.56l0 0c203.64,-53.31 370.39,-116.45 492.62,-191.64l0 0c61.07,-37.81 111.46,-78.75 149.07,-126.45l0 0c18.67,-23.88 34.11,-49.62 44.9,-77.42l0 0c10.84,-27.72 16.85,-57.54 16.82,-87.78l0 0c0.03,-30.24 -5.98,-60.1 -16.82,-87.8l0 0c-19.02,-48.75 -51.55,-90.74 -92.48,-128.38l0 0c-61.65,-56.47 -143.32,-104.68 -243,-148.85l0 0c-99.68,-43.99 -217.52,-83.41 -351.11,-118.29l0 0c-6.82,-1.77 -13.67,-2.63 -20.4,-2.63l0 0c-35.72,0 -68.34,23.97 -77.77,60.1z"/>
   <path class="fil44" d="M6678.74 6730.84c-44.31,-125.78 -64.92,-259.87 -61.47,-392.75l0 0c3.31,-132.9 30.61,-264.24 80.22,-384.81l0 0c40.29,-98.31 95.36,-189.21 161.73,-269.1l0 0c66.37,79.89 121.47,170.79 161.75,269.1l0 0c49.58,120.57 76.92,251.91 80.22,384.81l0 0c3.45,132.88 -17.16,266.97 -61.47,392.75l0 0c-41.06,117 -102.67,226.45 -180.5,321.98l0 0c-77.81,-95.53 -139.41,-204.98 -180.48,-321.98l0 0z"/>
   <path class="fil45" d="M6818.12 5542.58c-93.39,108.2 -166.68,234.8 -214.72,370.81l0 0c-48.18,135.95 -70.76,281.13 -67.29,424.7l0 0c3.28,143.57 32.58,286 86.06,416.73l0 0c53.31,130.84 130.42,249.89 225.15,349.27l0 0 11.9 12.48 11.92 -12.48c94.72,-99.38 171.84,-218.43 225.14,-349.27l0 0c53.48,-130.73 82.79,-273.16 86.07,-416.73l0 0c3.47,-143.56 -19.11,-288.75 -67.31,-424.7l0 0c-48.01,-136.01 -121.31,-262.6 -214.69,-370.81l0 0 -41.13 -47.64 -41.1 47.64z"/>
   <path class="fil46" d="M7701.74 5850.58c-137.4,19.51 -270.63,66.74 -390.2,138.33l0 0c-43.16,25.77 -84.36,54.85 -123.51,86.63 16.09,87.52 23.11,176.66 20.97,265.21l0 0c-3.55,155.43 -35.27,309.6 -93.16,451.12l0 0c-37.54,92.14 -86,178.88 -143.5,257.87 70.42,-19.62 139.14,-46.94 204.56,-81.72l0 0c120.55,-63.85 229.69,-153.08 319.61,-260.82l0 0c90.04,-107.61 161.12,-234.16 206.95,-371.01l0 0c46.03,-136.79 66.95,-283.52 61.27,-429.8l0 0 -2.51 -64.39 -60.49 8.57z"/>
   <path class="fil47" d="M6942.48 7089.05c-7.69,9.68 -15.5,19.23 -23.46,28.65 60.9,29.01 124.49,52.09 189.86,68.4l0 0c131.21,32.89 269.13,38.62 403.61,17.12l0 0c134.48,-21.33 265.96,-70.03 384.4,-143.73l0 0c118.49,-73.57 223.85,-171.75 308.55,-287.67l0 0 37.28 -51.02 -51.57 -34.49c-117.12,-78.32 -247.92,-132.57 -383.11,-158.88l0 0c-46.32,-9.09 -93.13,-14.78 -140.03,-17.29 -37.23,68.27 -78.79,133.09 -123.28,190.05 -148.65,190.3 -343.73,309.08 -602.26,388.87z"/>
   <path class="fil48" d="M7285.64 5614.31c-7.86,4.35 -15.66,8.8 -23.41,13.34l0 0 -3.32 1.96 0 0 -3.31 1.96 -3.31 1.98 0 0 -3.3 2 0 0 -3.29 2 -3.28 2.02 0 0 -3.28 2.03 0 0 -3.27 2.04 0 0 -0.75 0.46c-1.92,1.22 -3.85,2.43 -5.77,3.65l0 0c-3.25,2.07 -6.5,4.16 -9.72,6.27l0 0c-4.31,2.8 -8.6,5.64 -12.85,8.51l-0.01 0 -3.19 2.16 -0.01 0 -3.18 2.17 -0.01 0c-13.8,9.43 -27.4,19.17 -40.77,29.22l-0.01 0c-10.28,7.74 -20.44,15.66 -30.46,23.76l0 0 -3 2.44 -0.01 0 -2.99 2.45 0 0 -2.99 2.46 0 0c-1.99,1.64 -3.97,3.29 -5.95,4.95l0 0 -2.96 2.49 0 0 -2.95 2.5 -0.01 0 -2.94 2.51 0 0 -2.93 2.52 -0.01 0.01 -2.92 2.53 -0.01 0 -2.91 2.54 -0.01 0 -2.91 2.56 0 0 -2.9 2.56 0 0c-1.93,1.72 -3.86,3.43 -5.78,5.16l0 0 0 0c48.81,119.02 44.56,95.7 97.69,290.61 89.02,-57 152.53,-102.99 249.01,-143.98 -6.79,-45.84 -16.19,-91.31 -28.2,-136.08l0 0 -1.09 -4.07 -0.01 0 -1.11 -4.07 0 0 -1.12 -4.06 0 0 -1.14 -4.06 -1.16 -4.05 -1.17 -4.05 -1.18 -4.05 0 0 -1.2 -4.04 0 0 -1.21 -4.04 0 0 -1.23 -4.03 0 0 -1.24 -4.03 0 0 -1.25 -4.02 0 0 -1.27 -4.02 0 0 -1.28 -4.01 0 0c-1.29,-4.02 -2.6,-8.02 -3.93,-12.01l0 0c-1.78,-5.33 -3.59,-10.64 -5.44,-15.94l0 0 -1.4 -3.98 0 0 -1.4 -3.97 0 0 -1.43 -3.96 -1.43 -3.96 0 0 -1.45 -3.95 -0.01 0 -1.46 -3.95 -1.48 -3.95 -1.49 -3.94 -1.51 -3.93 -1.52 -3.93 0 0 -23.2 -59.59 -0.02 0.01 0 -0.01 -54.05 29.89zm-50.5 29.78c-1.92,1.22 -3.85,2.43 -5.77,3.65zm133.54 -3.74l0 0 -23.22 -59.58z"/>
   <path class="fil49" d="M7761.72 6196.55c-36.2,180.79 -41.26,173.61 -81.81,286.62 -0.08,0.25 74.23,8.9 140.74,23.72 52.05,11.6 96.65,25.25 131.04,37.12l0 0c44.05,-77.04 79.68,-159.71 105.65,-245.92l0 0 18.49 -61.42 -59.62 -13.78c-76.62,-17.71 -154.85,-26.57 -232.89,-26.57l0 0c-7.21,0 -14.41,0.07 -21.61,0.23l0 0z"/>
   <path class="fil50" d="M6355.53 5644.01c-32.56,83.68 -55.64,171.2 -68.77,260.1 96.48,41 159.99,86.98 249,143.98 53.13,-194.91 48.87,-171.59 97.69,-290.61 -61.42,-55.23 -128.8,-103.43 -200.65,-143.18l0 0 -54.06 -29.89 -23.21 59.59z"/>
   <path class="fil51" d="M5702.22 6222.89l-59.61 13.78 18.49 61.42c25.98,86.21 61.6,168.88 105.64,245.92l0 0 3.01 -1.04 0.59 1.04 0 0c34.39,-11.86 78.99,-25.51 131.04,-37.11 66.51,-14.83 140.82,-23.48 140.74,-23.73 -29.15,-81.25 -39.96,-100.38 -57.19,-171.91l0.59 0c-0.95,-3.14 -1.9,-6.28 -2.83,-9.43 -6.2,-26.54 -13.31,-60.02 -22.38,-105.28l0 0c-7.2,-0.15 -14.4,-0.23 -21.61,-0.23l0 0 -0.89 0 -0.33 0 -2.37 0 0 0c-78.05,0 -156.27,8.86 -232.9,26.57l0 0z"/>
   <path class="fil52" d="M6016.7 5850.58c137.4,19.51 270.63,66.74 390.2,138.33l0 0c43.15,25.77 84.35,54.85 123.51,86.63 -16.09,87.52 -23.11,176.66 -20.97,265.21l0 0c3.55,155.43 35.27,309.6 93.15,451.12l0 0c37.55,92.14 86.01,178.88 143.51,257.87 -70.42,-19.62 -139.14,-46.94 -204.57,-81.72l0 0c-120.54,-63.85 -229.68,-153.08 -319.6,-260.82l0 0c-90.04,-107.61 -161.13,-234.16 -206.95,-371.01l0 0c-46.04,-136.79 -66.95,-283.52 -61.28,-429.8l0 0 2.52 -64.39 60.49 8.57z"/>
   <path class="fil53" d="M6775.97 7089.05c7.68,9.68 15.5,19.23 23.46,28.65 -60.9,29.01 -124.5,52.09 -189.87,68.4l0 0c-131.2,32.89 -269.12,38.62 -403.6,17.12l0 0c-134.48,-21.33 -265.96,-70.03 -384.4,-143.73l0 0c-118.49,-73.57 -223.85,-171.75 -308.55,-287.67l0 0 -37.28 -51.02 51.57 -34.49c117.12,-78.32 247.92,-132.57 383.11,-158.88l0 0c46.32,-9.09 93.13,-14.78 140.03,-17.29 37.23,68.27 78.79,133.09 123.28,190.05 148.65,190.3 343.72,309.08 602.26,388.87z"/>
   <path class="fil54" d="M4797.36 3970.09c-62.08,21.47 -114.68,45.76 -156.32,73.54l0 0c-27.97,18.83 -51.24,39.33 -68.62,63.28l0 0c-17.29,23.78 -28.47,52.17 -28.42,82.27l0 0c-0.05,30.48 11.44,59.26 29.16,83.26l0 0c15.58,21.19 35.83,39.64 59.78,56.67l0 0c42.01,29.66 95.89,55.14 160.29,77.83l0 0c96.5,33.83 216.73,60.94 353.65,79.8l0 0c136.91,18.85 290.41,29.4 452.62,29.4l0 0c282.59,-0.09 538.34,-31.81 726.8,-84.34l0 0c94.35,-26.48 171.87,-57.79 229.22,-95.53l0 0c28.66,-18.93 52.5,-39.66 70.3,-63.84l0 0c17.71,-24 29.21,-52.77 29.15,-83.26l0 0c0.06,-30.56 -11.44,-59.29 -29.15,-83.29l0 0c-26.84,-36.2 -66.74,-64.93 -117.06,-90.98l0 0c-29.65,-15.22 -63.26,-29.28 -100.28,-42.33 -19.21,25.21 -40.47,49.44 -63.66,72.53 68.73,21.81 124.05,46.5 161.54,71.37l0 0c22.48,14.8 38.36,29.57 47.49,42.13l0 0c9.21,12.78 11.81,22.08 11.92,30.56l0 0c-0.11,8.45 -2.72,17.77 -11.92,30.52l0 0c-8.02,10.98 -21.13,23.67 -39.39,36.58l0 0c-31.89,22.69 -79.14,45.75 -138.25,66.45l0 0c-88.65,31.16 -203.9,57.43 -336.27,75.64l0 0c-132.42,18.22 -282.08,28.55 -440.44,28.55l0 0c-0.25,0 -0.54,0 -0.78,0l0 0c-275.42,0 -524.78,-31.49 -702.02,-81.05 -88.59,-24.66 -159.12,-54.18 -204.06,-84.03l0 0c-22.49,-14.78 -38.36,-29.55 -47.49,-42.14l0 0c-9.21,-12.75 -11.84,-22.08 -11.93,-30.52l0 0c0.09,-8.37 2.66,-17.51 11.55,-30.02l0 0c13.11,-18.58 41.4,-41.65 83.24,-63.33l0 0c35.51,-18.58 80.38,-36.49 132.84,-52.79 -23.15,-23.23 -44.35,-47.6 -63.49,-72.94zm1829.13 27.94c-7.79,29.82 10.05,60.29 39.86,68.04l0 0 0 -0.01c134.34,34.96 241.7,76.88 311.08,119.86l0 0c34.72,21.36 59.59,42.94 74.13,61.58l0 0c7.32,9.33 12.09,17.82 14.97,25.3l0 0c2.92,7.5 4.06,13.93 4.08,20.43l0 0c-0.02,6.47 -1.16,12.93 -4.08,20.41l0 0c-5.29,13.94 -17.8,31.85 -39.95,51.18l0 0c-38.45,34.06 -104.86,70.64 -192.73,103.34l0 0c-131.88,49.42 -311.73,91.53 -522.1,120.8l0 0c-210.42,29.3 -451.65,46.02 -707.89,46.02l0 0c-416.39,0.05 -793.52,-44.32 -1062.47,-114.64l0 0c-134.36,-34.93 -241.71,-76.86 -311.1,-119.82l0 0c-34.7,-21.37 -59.6,-42.94 -74.12,-61.59l0 0c-7.32,-9.32 -12.08,-17.81 -14.99,-25.29l0 0c-2.89,-7.48 -4.06,-13.94 -4.08,-20.41l0 0c0.02,-6.4 1.16,-12.76 3.97,-20.14l0 0c4.83,-12.73 15.59,-28.86 34.49,-46.47l0 0c28.17,-26.43 73.82,-55.11 133.97,-82.03l0 0c60.09,-27.02 134.55,-52.6 220.5,-75.5l0 0c29.75,-7.97 47.44,-38.52 39.48,-68.25l0 0c-7.92,-29.75 -38.48,-47.44 -68.23,-39.5l0 0c-137.75,36.87 -250.49,80.27 -333.16,131.93l0 0c-41.28,25.98 -75.4,54.08 -100.84,86.85l0 0c-12.64,16.39 -23.06,34.03 -30.35,53.05l0 0c-7.31,18.98 -11.37,39.37 -11.35,60.05l0 0c-0.02,20.97 4.15,41.64 11.66,60.85l0 0c14.16,36.17 39.01,66.99 70.32,94.59l0 0c55.07,48.04 131.69,88.01 227.24,123.95l0 0c143.24,53.53 329.5,96.62 545.78,126.77l0 0c216.2,30.1 462.16,47.09 723.27,47.09l0 0c424.48,-0.07 808.6,-44.66 1090.67,-118.24l0 0c141.17,-36.95 256.75,-80.72 341.48,-132.84l0 0c42.33,-26.21 77.26,-54.58 103.33,-87.65l0 0c12.94,-16.55 23.65,-34.39 31.12,-53.66l0 0c7.52,-19.21 11.68,-39.88 11.66,-60.85l0 0c0.02,-20.97 -4.15,-41.67 -11.66,-60.87l0 0c-13.18,-33.79 -35.73,-62.9 -64.11,-88.99l0 0c-42.73,-39.14 -99.34,-72.55 -168.44,-103.19l0 0c-69.09,-30.48 -150.77,-57.81 -243.38,-81.99l0 0c-4.73,-1.23 -9.48,-1.83 -14.14,-1.83l0 0c-24.76,0 -47.38,16.62 -53.9,41.67z"/>
   <path class="fil55" d="M5478.76 3976.73c-30.71,-87.18 -45,-180.14 -42.61,-272.25l0 0c2.29,-92.12 21.22,-183.16 55.6,-266.74l0 0c27.93,-68.14 66.11,-131.15 112.11,-186.53l0 0c46,55.38 84.19,118.39 112.11,186.53l0 0c34.37,83.58 53.32,174.62 55.61,266.74l0 0c2.39,92.11 -11.9,185.06 -42.61,272.25l0 0c-28.47,81.11 -71.17,156.98 -125.11,223.19l0 0c-53.94,-66.22 -96.64,-142.09 -125.1,-223.19l0 0z"/>
   <path class="fil56" d="M5575.37 3153.05c-64.74,75.01 -115.54,162.76 -148.83,257.05l0 0c-33.41,94.23 -49.05,194.88 -46.66,294.39l0 0c2.28,99.53 22.59,198.25 59.65,288.87l0 0c36.96,90.7 90.41,173.22 156.08,242.1l0 0 8.26 8.66 8.27 -8.66c65.66,-68.88 119.11,-151.4 156.06,-242.1l0 0c37.07,-90.62 57.39,-189.34 59.66,-288.87l0 0c2.4,-99.51 -13.24,-200.16 -46.67,-294.39l0 0c-33.27,-94.28 -84.08,-182.03 -148.81,-257.05l0 0 -28.51 -33.01 -28.5 33.01z"/>
   <path class="fil57" d="M6187.88 3366.56c-95.24,13.52 -187.59,46.26 -270.47,95.88l0 0c-29.91,17.86 -58.47,38.03 -85.62,60.06 11.15,60.67 16.02,122.46 14.54,183.83l0 0c-2.47,107.74 -24.46,214.61 -64.59,312.71l0 0c-26.03,63.88 -59.61,124.01 -99.47,178.76 48.81,-13.6 96.44,-32.53 141.8,-56.65l0 0c83.57,-44.26 159.22,-106.1 221.55,-180.8l0 0c62.41,-74.59 111.68,-162.32 143.45,-257.18l0 0c31.91,-94.82 46.41,-196.53 42.48,-297.91l0 0 -1.75 -44.65 -41.93 5.95z"/>
   <path class="fil58" d="M5661.57 4225.04c-5.32,6.72 -10.74,13.33 -16.25,19.86 42.21,20.11 86.29,36.11 131.6,47.42l0 0c90.95,22.8 186.55,26.78 279.77,11.86l0 0c93.22,-14.78 184.36,-48.54 266.46,-99.63l0 0c82.13,-51 155.17,-119.06 213.88,-199.41l0 0 25.84 -35.37 -35.75 -23.92c-81.18,-54.28 -171.85,-91.89 -265.56,-110.12l0 0c-32.1,-6.3 -64.56,-10.24 -97.06,-11.98 -25.81,47.33 -54.61,92.25 -85.46,131.73 -103.04,131.92 -238.27,214.25 -417.47,269.56z"/>
   <path class="fil59" d="M5899.45 3202.79c-5.45,3.01 -10.85,6.1 -16.22,9.25l0 0 -2.3 1.36 -0.01 0 -2.29 1.36 -2.29 1.37 0 0 -2.29 1.39 0 0 -2.28 1.39 -2.28 1.39 0 0 -2.27 1.41 0 0 -2.27 1.41 0 0 -0.51 0.33c-1.34,0.84 -2.67,1.68 -4.01,2.53l0 0c-2.25,1.43 -4.5,2.88 -6.74,4.34l0 0c-2.99,1.94 -5.96,3.91 -8.92,5.9l0 0 -2.22 1.5 0 0 -2.21 1.5 0 0c-9.56,6.53 -18.99,13.28 -28.27,20.26l0 0c-7.14,5.36 -14.17,10.85 -21.12,16.47l0 0 -2.08 1.69 -0.01 0 -2.07 1.7 0 0 -2.07 1.7 0 0c-1.38,1.14 -2.75,2.28 -4.12,3.43l-0.01 0 -2.05 1.73 0 0 -2.05 1.73 0 0 -2.04 1.74 0 0.01 -2.03 1.74 -0.01 0 -2.02 1.76 -0.01 0 -2.02 1.76 0 0 -2.02 1.77 0 0 -2.01 1.78 0 0c-1.34,1.19 -2.67,2.38 -4.01,3.58l0.01 0 -0.01 0c33.84,82.5 30.89,66.34 67.72,201.43 61.7,-39.51 105.72,-71.38 172.6,-99.8 -4.7,-31.77 -11.22,-63.3 -19.54,-94.33l0 0 -0.76 -2.82 0 0 -0.77 -2.82 0 0 -0.78 -2.82 0 0 -0.79 -2.81 -0.8 -2.81 -0.81 -2.81 -0.82 -2.8 0 0 -0.83 -2.81 0 0 -0.84 -2.79 0 0 -0.85 -2.8 0 0 -0.86 -2.79 0 0 -0.87 -2.79 0 0 -0.88 -2.79 0 0 -0.89 -2.78 0 0c-0.89,-2.78 -1.8,-5.56 -2.72,-8.33l0 0c-1.24,-3.69 -2.49,-7.38 -3.77,-11.04l-0.01 0 -0.96 -2.76 0 0 -0.98 -2.75 0 0 -0.98 -2.75 -1 -2.74 0 0 -1.01 -2.74 0 0 -1.01 -2.74 -1.03 -2.74 -1.03 -2.73 -1.04 -2.72 -1.06 -2.72 0 0 -16.08 -41.31 -0.01 0 0 0 -37.47 20.72zm-35 20.65c-1.34,0.84 -2.67,1.68 -4.01,2.53zm92.57 -2.59l0 0 -16.09 -41.31z"/>
   <path class="fil60" d="M6229.45 3606.37c-25.1,125.31 -28.6,120.35 -56.71,198.68 -0.05,0.18 51.45,6.17 97.56,16.45 36.08,8.04 66.99,17.5 90.83,25.73l0 0c30.53,-53.4 55.24,-110.7 73.24,-170.47l0 0 12.81 -42.57 -41.32 -9.56c-53.11,-12.27 -107.34,-18.42 -161.44,-18.42l0 0c-5,0 -9.99,0.05 -14.98,0.16l0 0z"/>
   <path class="fil61" d="M5254.71 3223.37c-22.58,58 -38.57,118.67 -47.68,180.3 66.88,28.42 110.89,60.29 172.6,99.8 36.83,-135.1 33.88,-118.94 67.71,-201.43 -42.57,-38.29 -89.28,-71.69 -139.08,-99.25l0 0 -37.48 -20.72 -16.08 41.31z"/>
   <path class="fil62" d="M4801.85 3624.64l-41.32 9.56 12.81 42.57c18.01,59.77 42.7,117.07 73.23,170.47l0 0 2.09 -0.72 0.41 0.72 0 0c23.84,-8.23 54.75,-17.68 90.83,-25.73 46.11,-10.28 97.61,-16.27 97.56,-16.44 -20.21,-56.33 -27.71,-69.58 -39.64,-119.17l0.4 0c-0.66,-2.18 -1.31,-4.35 -1.96,-6.54 -4.3,-18.39 -9.23,-41.6 -15.51,-72.98l0 0c-4.99,-0.1 -9.98,-0.15 -14.98,-0.15l0 0 -0.61 0 -0.23 0 -1.64 -0.01 0 0c-54.11,0 -108.32,6.15 -161.45,18.42l0 0z"/>
   <path class="fil63" d="M5019.85 3366.56c95.24,13.52 187.59,46.26 270.47,95.88l0 0c29.91,17.86 58.48,38.03 85.62,60.06 -11.14,60.67 -16.01,122.46 -14.53,183.83l0 0c2.46,107.74 24.45,214.61 64.58,312.71l0 0c26.03,63.88 59.61,124.01 99.47,178.76 -48.81,-13.6 -96.44,-32.53 -141.8,-56.65l0 0c-83.56,-44.26 -159.22,-106.1 -221.54,-180.8l0 0c-62.42,-74.59 -111.68,-162.32 -143.46,-257.18l0 0c-31.9,-94.82 -46.41,-196.53 -42.48,-297.91l0 0 1.75 -44.65 41.93 5.95z"/>
   <path class="fil64" d="M5546.15 4225.04c5.33,6.72 10.74,13.33 16.26,19.86 -42.22,20.11 -86.3,36.11 -131.61,47.42l0 0c-90.95,22.8 -186.55,26.78 -279.77,11.86l0 0c-93.21,-14.78 -184.35,-48.54 -266.45,-99.63l0 0c-82.14,-51 -155.18,-119.06 -213.88,-199.41l0 0 -25.85 -35.37 35.75 -23.92c81.19,-54.28 171.85,-91.89 265.56,-110.12l0 0c32.1,-6.3 64.56,-10.24 97.06,-11.98 25.82,47.33 54.62,92.25 85.46,131.73 103.05,131.92 238.27,214.25 417.47,269.56z"/>
   <path class="fil65" d="M1635.79 5438.69c-75.01,25.95 -138.56,55.29 -188.86,88.86l0 0c-33.79,22.75 -61.93,47.51 -82.93,76.44l0 0c-20.88,28.73 -34.38,63.05 -34.33,99.4l0 0c-0.05,36.83 13.83,71.6 35.25,100.6l0 0c18.81,25.61 43.28,47.88 72.22,68.47l0 0c50.75,35.84 115.85,66.62 193.66,94.03l0 0c116.6,40.87 261.85,73.62 427.29,96.42l0 0c165.41,22.77 350.88,35.52 546.87,35.52l0 0c341.43,-0.11 650.43,-38.44 878.14,-101.9l0 0c114,-31.99 207.66,-69.82 276.95,-115.42l0 0c34.63,-22.88 63.45,-47.92 84.95,-77.13l0 0c21.4,-28.99 35.3,-63.77 35.23,-100.6l0 0c0.07,-36.92 -13.83,-71.63 -35.23,-100.63l0 0c-32.41,-43.74 -80.63,-78.45 -141.43,-109.92l0 0c-35.83,-18.39 -76.43,-35.39 -121.16,-51.14 -23.22,30.45 -48.89,59.73 -76.92,87.63 83.06,26.35 149.87,56.17 195.17,86.23l0 0c27.17,17.89 46.36,35.73 57.38,50.9l0 0c11.12,15.44 14.27,26.68 14.41,36.92l0 0c-0.14,10.21 -3.29,21.48 -14.41,36.89l0 0c-9.68,13.25 -25.53,28.59 -47.6,44.2l0 0c-38.54,27.41 -95.62,55.26 -167.03,80.28l0 0c-107.11,37.65 -246.36,69.39 -406.3,91.38l0 0c-160,22.02 -340.82,34.5 -532.15,34.5l0 0c-0.3,0 -0.65,0 -0.94,0l0 0c-332.77,0 -634.05,-38.06 -848.21,-97.94 -107.04,-29.78 -192.25,-65.46 -246.56,-101.52l0 0c-27.17,-17.86 -46.35,-35.71 -57.37,-50.9l0 0c-11.12,-15.41 -14.31,-26.68 -14.42,-36.89l0 0c0.11,-10.1 3.21,-21.15 13.96,-36.27l0 0c15.85,-22.45 50.01,-50.32 100.57,-76.51l0 0c42.91,-22.46 97.12,-44.1 160.51,-63.8 -27.97,-28.07 -53.59,-57.5 -76.71,-88.12zm2210.01 33.75c-9.41,36.03 12.15,72.83 48.15,82.22l0 0 0 -0.02c162.32,42.25 292.04,92.88 375.85,144.81l0 0c41.96,25.82 72.01,51.88 89.57,74.4l0 0c8.85,11.27 14.61,21.54 18.09,30.56l0 0c3.53,9.06 4.9,16.84 4.93,24.69l0 0c-0.03,7.82 -1.4,15.63 -4.93,24.66l0 0c-6.39,16.84 -21.51,38.49 -48.26,61.85l0 0c-46.47,41.15 -126.68,85.35 -232.87,124.84l0 0c-159.34,59.73 -376.63,110.6 -630.81,145.96l0 0c-254.24,35.4 -545.7,55.59 -855.28,55.59l0 0c-503.11,0.06 -958.76,-53.54 -1283.73,-138.52l0 0c-162.34,-42.2 -292.04,-92.86 -375.87,-144.76l0 0c-41.94,-25.82 -72.01,-51.87 -89.55,-74.41l0 0c-8.84,-11.25 -14.61,-21.53 -18.11,-30.55l0 0c-3.5,-9.03 -4.91,-16.84 -4.93,-24.66l0 0c0.02,-7.74 1.4,-15.41 4.8,-24.34l0 0c5.82,-15.39 18.83,-34.87 41.66,-56.13l0 0c34.03,-31.93 89.2,-66.6 161.88,-99.12l0 0c72.6,-32.63 162.56,-63.55 266.42,-91.22l0 0c35.95,-9.62 57.31,-46.54 47.7,-82.47l0 0c-9.56,-35.94 -46.49,-57.31 -82.44,-47.72l0 0c-166.43,44.54 -302.66,96.98 -402.53,159.39l0 0c-49.88,31.4 -91.11,65.36 -121.84,104.95l0 0c-15.27,19.81 -27.87,41.13 -36.67,64.11l0 0c-8.84,22.94 -13.75,47.57 -13.72,72.55l0 0c-0.03,25.33 5.02,50.3 14.09,73.51l0 0c17.11,43.72 47.14,80.96 84.98,114.29l0 0c66.54,58.05 159.1,106.34 274.55,149.75l0 0c173.06,64.68 398.11,116.74 659.44,153.18l0 0c261.21,36.38 558.4,56.89 873.89,56.89l0 0c512.85,-0.09 976.96,-53.96 1317.78,-142.86l0 0c170.55,-44.66 310.2,-97.53 412.57,-160.51l0 0c51.15,-31.66 93.35,-65.95 124.85,-105.9l0 0c15.63,-20 28.57,-41.56 37.6,-64.85l0 0c9.08,-23.21 14.11,-48.18 14.09,-73.51l0 0c0.02,-25.34 -5.02,-50.34 -14.09,-73.54l0 0c-15.93,-40.83 -43.18,-76 -77.46,-107.52l0 0c-51.62,-47.3 -120.03,-87.66 -203.51,-124.67l0 0c-83.49,-36.83 -182.17,-69.84 -294.06,-99.06l0 0c-5.72,-1.48 -11.45,-2.21 -17.09,-2.21l0 0c-29.91,0 -57.24,20.08 -65.14,50.34z"/>
   <path class="fil66" d="M2459.07 5446.7c-37.11,-105.33 -54.36,-217.65 -51.48,-328.94l0 0c2.77,-111.3 25.65,-221.3 67.18,-322.28l0 0c33.74,-82.33 79.87,-158.47 135.45,-225.37l0 0c55.58,66.91 101.73,143.05 135.46,225.37l0 0c41.54,100.98 64.43,210.98 67.19,322.28l0 0c2.88,111.29 -14.38,223.6 -51.48,328.94l0 0c-34.38,98 -85.99,189.67 -151.17,269.67l0 0c-65.17,-80 -116.76,-171.67 -151.15,-269.67l0 0z"/>
   <path class="fil67" d="M2575.8 4451.51c-78.22,90.62 -139.6,196.65 -179.83,310.56l0 0c-40.36,113.86 -59.27,235.47 -56.37,355.69l0 0c2.76,120.26 27.3,239.53 72.07,349.03l0 0c44.66,109.58 109.24,209.29 188.58,292.52l0 0 9.96 10.45 9.98 -10.45c79.34,-83.23 143.92,-182.93 188.57,-292.52l0 0c44.79,-109.49 69.33,-228.77 72.08,-349.03l0 0c2.9,-120.23 -16.01,-241.83 -56.39,-355.69l0 0c-40.21,-113.91 -101.59,-219.94 -179.81,-310.56l0 0 -34.44 -39.89 -34.42 39.89z"/>
   <path class="fil68" d="M3315.86 4709.47c-115.07,16.34 -226.65,55.9 -326.79,115.85l0 0c-36.14,21.59 -70.65,45.95 -103.44,72.57 13.47,73.3 19.35,147.94 17.56,222.11l0 0c-2.98,130.17 -29.54,259.29 -78.03,377.82l0 0c-31.44,77.17 -72.02,149.82 -120.19,215.97 58.99,-16.42 116.53,-39.3 171.33,-68.43l0 0c100.96,-53.47 192.37,-128.2 267.68,-218.45l0 0c75.41,-90.13 134.94,-196.12 173.33,-310.73l0 0c38.55,-114.56 56.06,-237.46 51.31,-359.96l0 0 -2.11 -53.93 -50.66 7.18z"/>
   <path class="fil69" d="M2679.96 5746.73c-6.43,8.11 -12.97,16.1 -19.64,23.99 51,24.3 104.27,43.63 159.02,57.29l0 0c109.89,27.55 225.39,32.34 338.02,14.34l0 0c112.63,-17.87 222.75,-58.66 321.94,-120.39l0 0c99.24,-61.62 187.48,-143.84 258.41,-240.92l0 0 31.22 -42.74 -43.2 -28.89c-98.09,-65.59 -207.63,-111.02 -320.86,-133.06l0 0c-38.79,-7.61 -78,-12.37 -117.27,-14.47 -31.18,57.18 -65.99,111.46 -103.25,159.17 -124.49,159.38 -287.88,258.85 -504.41,325.69z"/>
   <path class="fil70" d="M2967.37 4511.59c-6.58,3.65 -13.11,7.37 -19.6,11.17l-0.01 0 -2.77 1.64 -0.01 0 -2.77 1.65 -2.77 1.66 0 0 -2.76 1.67 0 0 -2.76 1.68 -2.75 1.69 0 0 -2.74 1.69 0 0.01 -2.74 1.7 0 0 -0.63 0.4c-1.61,1.01 -3.22,2.03 -4.83,3.05l0 0c-2.73,1.74 -5.44,3.48 -8.15,5.25l0 0c-3.61,2.35 -7.2,4.73 -10.77,7.13l0 0 -2.68 1.8 0 0.01 -2.67 1.81 0 0c-11.56,7.9 -22.95,16.05 -34.15,24.48l0 0c-8.62,6.49 -17.12,13.11 -25.52,19.9l0 0 -2.52 2.04 0 0.01 -2.5 2.04 -0.01 0.01 -2.5 2.05 0 0.01c-1.66,1.37 -3.32,2.75 -4.98,4.14l0 0 -2.48 2.09 0 0 -2.48 2.09 0 0 -2.46 2.11 -0.01 0 -2.45 2.11 -0.01 0 -2.45 2.12 0 0 -2.44 2.13 0 0 -2.44 2.14 0 0 -2.43 2.15 0 0c-1.62,1.44 -3.23,2.87 -4.84,4.32l0 0 0 0c40.88,99.68 37.31,80.15 81.82,243.38 74.55,-47.74 127.74,-86.24 208.54,-120.58 -5.68,-38.4 -13.55,-76.48 -23.61,-113.98l0 0 -0.92 -3.41 0 0 -0.93 -3.4 0 0 -0.94 -3.4 0 0 -0.96 -3.4 -0.97 -3.4 -0.97 -3.39 -0.99 -3.39 -0.01 0 -1 -3.38 0 0 -1.01 -3.38 0 0 -1.03 -3.38 0 0 -1.04 -3.37 0 0 -1.05 -3.38 0 0 -1.06 -3.36 0 0 -1.07 -3.36 0 0c-1.08,-3.36 -2.18,-6.72 -3.3,-10.06l0 0c-1.48,-4.46 -3,-8.91 -4.55,-13.34l0 0 -1.17 -3.33 0 0 -1.18 -3.33 0 0 -1.19 -3.32 -1.2 -3.32 0 0 -1.22 -3.31 0 0 -1.23 -3.31 -1.23 -3.3 -1.25 -3.3 -1.27 -3.29 -1.27 -3.29 0 0 -19.43 -49.9 -0.01 0 -0.01 0 -45.27 25.03zm-42.3 24.96c-1.61,1.01 -3.22,2.03 -4.83,3.05zm111.84 -3.13l0 0 -19.44 -49.9z"/>
   <path class="fil71" d="M3366.09 4999.23c-30.31,151.41 -34.55,145.4 -68.51,240.05 -0.06,0.21 62.17,7.45 117.87,19.87 43.6,9.71 80.95,21.14 109.75,31.08l0 0c36.89,-64.53 66.74,-133.76 88.49,-205.96l0 0 15.48 -51.44 -49.93 -11.54c-64.17,-14.83 -129.68,-22.25 -195.05,-22.25l0 0c-6.03,0 -12.07,0.06 -18.1,0.19l0 0z"/>
   <path class="fil72" d="M2188.38 4536.47c-27.28,70.08 -46.6,143.39 -57.6,217.85 80.8,34.33 133.99,72.84 208.54,120.58 44.51,-163.23 40.94,-143.7 81.83,-243.38 -51.44,-46.26 -107.88,-86.62 -168.05,-119.92l0 0 -45.28 -25.03 -19.44 49.9z"/>
   <path class="fil73" d="M1641.22 5021.28l-49.92 11.54 15.48 51.44c21.76,72.2 51.59,141.45 88.48,205.96l0 0 2.52 -0.87 0.49 0.87 0 0c28.8,-9.94 66.16,-21.37 109.75,-31.08 55.7,-12.42 117.94,-19.66 117.87,-19.87 -24.42,-68.05 -33.46,-84.07 -47.89,-143.97l0.49 -0.01c-0.8,-2.62 -1.59,-5.25 -2.36,-7.89 -5.2,-22.23 -11.15,-50.26 -18.75,-88.18l0 0c-6.03,-0.13 -12.06,-0.19 -18.1,-0.19l0 0 -0.74 0 -0.28 0 -1.98 0 0 0c-65.38,0 -130.88,7.42 -195.06,22.25l0 0z"/>
   <path class="fil74" d="M1904.6 4709.47c115.08,16.34 226.66,55.9 326.8,115.85l0 0c36.14,21.59 70.64,45.95 103.44,72.57 -13.47,73.3 -19.35,147.94 -17.56,222.11l0 0c2.98,130.17 29.54,259.29 78.02,377.82l0 0c31.45,77.17 72.03,149.82 120.2,215.97 -58.99,-16.42 -116.53,-39.3 -171.33,-68.43l0 0c-100.96,-53.47 -192.37,-128.2 -267.68,-218.45l0 0c-75.41,-90.13 -134.94,-196.12 -173.33,-310.73l0 0c-38.55,-114.56 -56.07,-237.46 -51.31,-359.96l0 0 2.11 -53.93 50.65 7.18z"/>
   <path class="fil75" d="M2540.51 5746.73c6.43,8.11 12.97,16.1 19.64,23.99 -51,24.3 -104.28,43.63 -159.02,57.29l0 0c-109.89,27.55 -225.39,32.34 -338.03,14.34l0 0c-112.62,-17.87 -222.74,-58.66 -321.93,-120.39l0 0c-99.24,-61.62 -187.48,-143.84 -258.41,-240.92l0 0 -31.22 -42.74 43.19 -28.89c98.09,-65.59 207.64,-111.02 320.86,-133.06l0 0c38.79,-7.61 78,-12.37 117.28,-14.47 31.18,57.18 65.99,111.46 103.25,159.17 124.49,159.38 287.88,258.85 504.41,325.69z"/>
   <path class="fil76" d="M16793.05 8671.03l0 84.38c106.84,4.75 182.41,31.27 226.95,80.73l0 0c44.54,49.05 67,132.39 67,249.42l0 0 0 1460.76c0,117.68 -22.47,201 -67,251.28l0 0c-44.54,50.03 -120.11,76.38 -226.95,79.68l0 0 0 84.56 2017.05 0 131.98 -726.44 -94.8 0c-52.93,206.74 -136.27,354.82 -250.06,444.53l0 0c-113.63,88.89 -277.06,133.43 -490.33,133.43l0 0c-136.27,0 -221.86,-12.51 -255.8,-37.41l0 0c-34.11,-24.5 -51.25,-92.14 -51.25,-203.09l0 0 0 -708.89 28.38 0c129.95,0 226.14,35.96 288.69,108.69l0 0c62.49,72.5 102.56,195.11 118.89,367.51l0 0 84.38 0 0 -1101.35 -84.38 0c-16.33,169.97 -55.76,290.95 -117.27,363.85l0 0c-61.91,72.51 -155.26,109.11 -280.92,109.11l0 0 -37.76 0 0 -895.42 325.63 0c198.82,0 341.79,35.49 428.43,107.01l0 0c86.81,71.11 142.99,195.51 168.35,372.84l0 0 81.08 0 0 -625.15 -2010.27 0zm4087.77 2990.3l1020.28 0 0 -77.83c-86.22,-16.1 -147.09,-44.94 -182.82,-85.37l0 0c-35.56,-41.29 -53.57,-101.58 -53.57,-182.01l0 0 0 -499.94c53.97,62.54 113.8,109.1 180.23,140.14l0 0c65.79,31.04 138.52,45.99 217.75,45.99l0 0c181.44,0 328.93,-79.28 442.32,-238.02l0 0c112.99,-158.97 169.97,-368.37 169.97,-627.99l0 0c0,-263.37 -58.61,-473.36 -175.07,-629.43l0 0c-116.69,-156.13 -270.91,-234.37 -463.34,-234.37l0 0c-79.46,0 -150.57,14.3 -213.52,42.28 -62.73,28.2 -119.07,70.3 -168.52,126.7l0 0 0 -145.29 -773.7 0 0 77.66c66.43,23.11 115.01,52.93 145.87,90.1l0 0c30.87,36.55 46.57,83.34 46.57,140.96l0 0 0 1711.22c0,80.44 -15.11,140.73 -44.94,182.01l0 0c-29.82,40.43 -78.82,69.26 -147.5,85.37l0 0 0 77.83zm5855.57 -2929.38c-55.36,154.86 -137.08,285.39 -245.14,393.04l0 0c-108.69,106.84 -236.4,184.1 -383.89,231.47l0 0 0 135.69 182.47 0 0 1018.83c0,163.19 36.54,285.16 109.68,366.29l0 0c73.14,81.31 182.82,121.74 330.56,121.74l0 0c99.09,0 191.63,-23.05 278.26,-69.2l0 0c86,-46.22 171.19,-117.51 254.35,-214.97l0 0 -83.57 -70.48c-28.78,30.46 -57.62,54.15 -85.83,70.48l0 0c-27.57,16.39 -53.51,24.15 -76.62,24.15l0 0c-46.16,0 -79.86,-20.27 -100.88,-60.92l0 0c-20.85,-40.43 -31.5,-104.6 -31.5,-192.04l0 0 0 -993.87 310.75 0 0 -179.18 -310.75 0 0 -581.03 -147.9 0zm-1118.91 606.97c-62.72,46.8 -122.19,121.15 -179.18,223.71l0 0 -6.95 -249.66 -757.13 0 0 77.83c68.04,10.6 116.46,37.59 145.88,80.5l0 0c28.61,43.5 43.09,108.64 43.09,196.5l0 0 0 948.75c0,79.69 -14.48,139.74 -43.09,181.04l0 0c-29.42,40.88 -77.84,70.3 -145.88,86.63l0 0 0 77.6 969.61 0 0 -77.6c-67.23,-16.33 -114.44,-45.18 -143.05,-85.6l0 0c-28.78,-41.06 -42.68,-101.35 -42.68,-182.07l0 0 0 -638.41c0,-112.18 7.18,-188.56 22.47,-229.22l0 0c14.71,-41.06 40.65,-61.27 78.24,-61.27l0 0c18.59,0 57.85,19.58 118.31,59.65l0 0c60.87,39.44 117.04,59.01 169.97,59.01l0 0c71.52,0 128.27,-23.45 170.2,-71.05l0 0c41.47,-47.2 62.49,-111.36 62.49,-192.5l0 0c0,-81.48 -23.28,-147.49 -69.43,-197.54l0 0c-46.22,-50.84 -106.44,-75.97 -181.21,-75.97l0 0c-79.52,0 -149.99,22.87 -211.67,69.66zm-2539.46 174.66c-156.47,160.59 -234.71,368.38 -234.71,622.71l0 0c0,253.72 79.05,460.69 236.57,623.07l0 0c158.16,162.04 359.8,242.93 604.7,242.93l0 0c248.27,0 451.13,-80.5 606.97,-241.08l0 0c156.13,-160.19 234.36,-368.55 234.36,-624.92l0 0c0,-255.79 -78.23,-463.75 -234.36,-623.93l0 0c-155.84,-159.78 -358.7,-239.86 -606.97,-239.86l0 0c-247.16,0 -449.22,80.5 -606.56,241.08zm441.11 1216.77c-31.67,-99.67 -47.43,-296.62 -47.43,-590.58l0 0c0,-297.89 15.75,-495.66 47.43,-592.89l0 0c30.87,-97.64 86.01,-146.05 165.45,-146.05l0 0c80.73,0 136.27,50.84 168.35,152.59l0 0c32.08,101.93 48,297.43 48,586.35l0 0c0,289.44 -15.92,485.42 -48,587.97l0 0c-32.08,101.93 -87.62,153 -168.35,153l0 0c-79.45,0 -134.58,-49.86 -165.45,-150.39zm-1780.07 -31.45c-29.82,-17.37 -54.72,-43.89 -74.36,-78.87l0 0 0 -1002.27c19.64,-33.88 44.54,-60.29 73.78,-78.47l0 0c28.61,-17.72 60.87,-26.94 94.57,-26.94l0 0c77.02,0 132.38,45.76 164.46,136.85l0 0c32.49,91.32 48.82,248.44 48.82,471.33l0 0c0,212.89 -15.69,367.1 -47.78,462.54l0 0c-31.91,94.98 -83.81,142.41 -155.5,142.41l0 0c-39.2,0 -74.18,-8.98 -104.01,-26.59zm-1557.12 -1385.93l0 76.21c46.16,4.29 79.23,12.85 99.09,25.95l0 0c19.81,12.22 29.82,31.44 29.82,56.75l0 0c0,14.13 -4.29,31.68 -13.9,51.89l0 0c-9.84,20.27 -23.28,42.51 -40.65,66.83l0 0 -154.86 219.2 -148.77 -230.83c-18.59,-27.57 -31.44,-49.22 -37.76,-65.39l0 0c-6.78,-15.75 -10.01,-31.04 -10.01,-44.94l0 0c0,-22.07 6.72,-39.67 19.63,-51.48l0 0c13.67,-12.28 34.92,-21.26 64.75,-27.98l0 0 0 -76.21 -916.27 0 0 77.83c32.26,6.73 64.75,26.36 98.68,59.65l0 0c33.3,32.66 74.94,87.21 124.39,163.42l0 0 402.66 618.21 -328.88 416.15 -6.78 8.4c-106.44,138.52 -216.76,214.73 -329.92,227.59l0 0 0 77.6 539.96 0 0 -77.6c-33.7,0 -60.28,-8 -79.28,-23.11l0 0c-18.59,-15.29 -27.57,-36.54 -27.57,-64.17l0 0c0,-29.99 15.11,-65.73 45.99,-109.04l0 0c4.69,-6.38 7.94,-12.68 11.23,-18.42l0 0 242.7 -329.75 206.1 321.58c21.08,30.86 36.6,57.39 46.39,79.69l0 0c10.19,23.28 15.12,42.28 15.12,59.24l0 0c0,19.81 -5.74,34.92 -16.74,46.16l0 0c-10.82,10.65 -36.6,23.69 -77.25,37.82l0 0 0 77.6 958.37 0 0 -77.6c-49.45,-16.33 -95.2,-43.96 -136.27,-81.72l0 0c-41.06,-37.58 -92.36,-105.22 -154.21,-202.05l0 0 -438.68 -683 248.84 -317.23c48.41,-61.33 101.35,-110.96 157.53,-147.5l0 0c56.98,-37.17 111.76,-57.85 164.69,-63.53l0 0 0 -76.21 -558.15 0z"/>
   <path class="fil77" d="M-0 8664.19l0 84.38 31.5 0c64.75,0 116,15.99 153.17,48.01l0 0c37.24,32.08 69.26,89.12 95.85,171.82l0 0 682.94 2040.73 181.44 0 582.24 -1563.66 512.98 1563.66 178.6 0 791.65 -2057.7c27.57,-71.46 59.01,-122.77 94.57,-154.22l0 0c36.19,-31.03 80.5,-48 134.64,-50.26l0 0 0 -82.76 -541.18 0 0 82.76c51.88,2.26 93.18,13.72 123.99,34.92l0 0c31.1,20.85 46.22,47.43 46.22,80.73l0 0c0,16.33 -2.9,34.92 -7.19,55.13l0 0c-5.33,20.04 -13.08,43.96 -24.32,70.3l0 0 -408.97 1074.43 -371.62 -1106.1c-5.16,-16.16 -9.61,-31.27 -11.87,-44.71l0 0c-2.84,-14.13 -4.52,-26.99 -4.52,-39.04l0 0c0,-40.07 15.11,-69.89 45.58,-90.74l0 0c29.82,-21.2 74.36,-31.85 133.02,-33.3l0 0 0 -84.38 -1100.94 0 0 82.76c59.65,2.26 109.27,19.23 148.48,50.26l0 0c40.07,31.45 69.89,78.24 90.92,139.52l0 0 95.61 277.05 -314.81 842.14 -354.65 -1077.9c-10.24,-27.17 -16.96,-51.25 -20.84,-71.52l0 0c-4.12,-20.21 -5.74,-41.87 -5.74,-63.71l0 0c0,-27.8 14.47,-50.08 43.9,-67.63l0 0c28.83,-17.37 67.23,-26.59 114.43,-26.59l0 0 10.19 0 0 -84.38 -1125.27 0zm7004.99 60.93c-55.19,154.85 -137.08,285.38 -245.19,393.04l0 0c-108.64,106.84 -236.34,184.09 -384.07,231.47l0 0 0 135.68 182.65 0 0 1018.84c0,163.19 36.59,285.15 109.68,366.29l0 0c73.14,81.31 183.05,121.73 330.56,121.73l0 0c99.08,0 191.45,-23.05 278.25,-69.2l0 0c86.01,-46.22 171.25,-117.5 254.58,-214.97l0 0 -83.97 -70.47c-28.61,30.45 -57.62,54.14 -85.6,70.47l0 0c-27.57,16.39 -53.33,24.15 -76.61,24.15l0 0c-46.16,0 -79.87,-20.27 -100.71,-60.92l0 0c-20.85,-40.42 -31.68,-104.59 -31.68,-192.04l0 0 0 -993.87 310.93 0 0 -179.18 -310.93 0 0 -581.02 -147.9 0zm-1876.67 672.35c-102.97,90.45 -154.28,204.25 -154.28,341.96l0 0c0,63.53 12.45,124.85 37.99,182.82l0 0c25.37,58.67 62.32,111.6 110.73,158.97l0 0c66.02,61.1 176.75,148.54 332.82,260.48l0 0c36.19,26.76 63.76,46.39 82.35,59.25l0 0c83.74,61.91 137.89,110.55 162.61,145.46l0 0c24.9,35.16 37.18,73.72 37.18,116.06l0 0c0,55.36 -17.55,100.71 -51.71,134.18l0 0c-34.92,33.3 -81.08,50.26 -138.07,50.26l0 0c-102.39,0 -200.84,-48.17 -295.64,-145.23l0 0c-94.97,-96.83 -155.9,-217.41 -183.46,-361.6l0 0 -74.35 0 0 614.9 87.61 0c13.09,-27.57 29.01,-47.2 48.01,-60.87l0 0c18.59,-12.67 39.43,-19.63 62.54,-19.63l0 0c14.07,0 73.32,20.27 176.69,60.93l0 0c103.2,39.84 205.76,60.05 307.11,60.05l0 0c157.11,0 289.49,-49.86 395.29,-150.16l0 0c106.44,-99.72 159.38,-223.48 159.38,-371.21l0 0c0,-61.28 -8.4,-119.94 -25.54,-175.48l0 0c-17.38,-55.36 -40.89,-104.82 -71.75,-147.49l0 0c-46.34,-66.03 -135.46,-142.01 -266.97,-227.59l0 0c-37.82,-25.55 -66.66,-44.54 -86.23,-58.03l0 0c-9.61,-6.37 -24.32,-16.33 -42.91,-29.41l0 0c-188.97,-129.96 -283.77,-228.64 -283.77,-296.85l0 0c0,-42.51 14.71,-77.02 44.54,-102.97l0 0c29.82,-25.95 68.85,-38.8 117.04,-38.8l0 0c88.25,0 173.45,37.76 255.62,112.52l0 0c81.89,75.4 139.75,171.82 174.26,289.5l0 0 77.43 0 0 -517.5 -74.18 0c-18.59,23.11 -37.18,39.44 -56.18,49.45l0 0c-18.59,9.61 -39.03,14.71 -60.86,14.71l0 0c-11.24,0 -62.15,-14.07 -152.6,-41.7l0 0c-90.74,-28.15 -176.52,-42.04 -257.01,-42.04l0 0c-159.15,0 -290.55,44.94 -393.68,135.05zm-1462.2 -41.06c-112.12,60.05 -204.48,144.02 -277.23,250.64l0 0c-49.62,73.77 -87.21,154.68 -113.16,243.11l0 0c-25.94,88.48 -38.85,183.05 -38.85,282.77l0 0c0,256.15 72.73,463.93 218.04,623.47l0 0c145.23,159.37 333.8,239.06 565.9,239.06l0 0c165.04,0 309.71,-45.98 433.69,-138.93l0 0c124.23,-92.77 222.26,-226.37 293.79,-401.03l0 0 -105.8 -51.08c-49.45,83.34 -104.24,146.28 -165.1,189.2l0 0c-60.29,42.91 -126.07,64.11 -196.55,64.11l0 0c-127.64,0 -231.48,-52.29 -311.34,-157.06l0 0c-79.86,-104.82 -123.18,-246.58 -131.16,-425.76l0 0 888.7 -1.68c-6.95,-255.74 -71.51,-453.91 -193.88,-595.1l0 0c-122.78,-141.37 -292.17,-212.48 -508.86,-212.48l0 0c-126.71,0 -246.18,30.46 -358.18,90.75zm220.06 185.25c33.29,-94.16 78.81,-140.73 137.25,-140.73l0 0c59.24,0 104.82,46.16 136.26,137.89l0 0c31.1,92.31 48.01,226.55 50.27,402.66l0 0 -375.09 0c1.04,-172.81 18.18,-306.47 51.31,-399.82z"/>
   <path class="fil78" d="M10221.82 8671.03l0 77.66c68.22,11.46 116.64,37.99 145.88,80.09l0 0c28.77,42.28 43.49,107.42 43.49,195.28l0 0 0 1592.5c0,79.69 -14.71,139.74 -43.49,181.04l0 0c-29.24,40.88 -77.66,70.3 -145.88,86.63l0 0 0 77.6 986.57 0 0 -77.6c-67,-16.33 -115.24,-45.76 -144.66,-86.63l0 0c-29.82,-41.3 -44.3,-101.35 -44.3,-181.04l0 0 0 -1945.52 -797.61 0zm-2158.58 0l0 84.38c107.02,4.75 182.59,31.27 227.13,80.73l0 0c44.6,49.05 67.06,132.39 67.06,249.42l0 0 0 1460.12c0,117.91 -22.47,201.64 -67.06,251.92l0 0c-44.54,50.03 -120.11,76.38 -227.13,79.68l0 0 0 84.56 1300.92 0 0 -84.56c-105.8,-3.3 -181.21,-29.64 -226.31,-79.68l0 0c-44.95,-50.27 -67.64,-134.01 -67.64,-251.92l0 0 0 -681.72 41.29 0c140.73,0 246.18,34.1 315.84,103.37l0 0c69.84,69.49 113.16,181.84 129.49,339.13l0 0 91.33 0 0 -1033.95 -91.33 0c-16.33,156.48 -59.65,269.29 -129.49,338.31l0 0c-69.66,69.49 -175.12,104.19 -315.84,104.19l0 0 -41.29 0 0 -898.66 280.92 0c198.18,0 341.16,35.49 427.97,107.01l0 0c86.86,71.11 143.05,195.51 169.56,372.84l0 0 91.33 0 0 -625.15 -1976.75 0zm6858.47 720.35c-135.05,81.14 -202.45,186.94 -202.45,316.89l0 0c0,84.55 27.98,152.83 83.74,203.9l0 0c56.18,51.25 131.34,76.79 224.75,76.79l0 0c72.51,0 131.11,-22.07 176.92,-65.56l0 0c45.53,-43.15 68.39,-100.13 68.39,-170.6l0 0c0,-35.56 -12.85,-78.65 -38.8,-129.95l0 0c-26.35,-51.25 -39.2,-85.78 -39.2,-102.97l0 0c0,-35.73 16.73,-64.35 50.43,-87.45l0 0c33.3,-23.05 76.85,-34.91 129.72,-34.91l0 0c56.18,0 100.77,18 132.79,53.5l0 0c32.72,35.96 49.05,85.66 49.05,149.18l0 0 0 344.63c-293.96,85.6 -514.19,185.31 -661.28,298.06l0 0c-146.92,112.35 -220.64,238.02 -220.64,376.71l0 0c0,110.32 36.13,201.47 108.23,274.22l0 0c71.92,72.5 163.25,108.46 272.94,108.46l0 0c82.76,0 165.1,-19 247.45,-57.8l0 0c82.12,-38.22 172.81,-100.36 272.94,-185.95l0 0c41.87,78.88 94.16,139.75 157.69,181.44l0 0c63.13,41.7 133.61,62.32 211.67,62.32l0 0c75.57,0 149.35,-21.89 219.84,-65.79l0 0c70.64,-43.96 138.29,-108.7 202.04,-194.7l0 0 -47.2 -56.99c-25.54,12.86 -46.79,23.29 -64.75,30l0 0c-18.01,7.18 -32.71,10.65 -43.95,10.65l0 0c-21.66,0 -38.4,-10.65 -49.63,-32.31l0 0c-11.87,-21.26 -17.6,-52.87 -17.6,-95.38l0 0 0 -781.22c0,-186.94 -55.77,-324.88 -167.08,-414.12l0 0c-112.17,-88.89 -284.4,-133.2 -517.49,-133.2l0 0c-223.71,0 -402.66,40.43 -538.52,122.14zm370.58 1243.18c-30.86,-39.84 -45.99,-91.73 -45.99,-155.9l0 0c0,-84.38 27.4,-163.82 83.4,-238.02l0 0c55.54,-74.53 131.57,-131.34 227.36,-170.78l0 0 0 547.32c-22.07,27.8 -44.54,47.38 -67.64,59.65l0 0c-23.05,11.87 -48.99,18.18 -77.6,18.18l0 0c-48.64,0 -88.48,-20.21 -119.53,-60.46zm-1171.25 -1295.64c-62.49,46.8 -122.37,121.15 -179.19,223.71l0 0 -6.72 -249.66 -757.3 0 0 77.83c68.22,10.6 116.41,37.59 145.82,80.5l0 0c28.84,43.5 43.32,108.64 43.32,196.5l0 0 0 948.75c0,79.69 -14.47,139.74 -43.32,181.04l0 0c-29.41,40.88 -77.6,70.3 -145.82,86.63l0 0 0 77.6 969.55 0 0 -77.6c-66.78,-16.33 -114.2,-45.18 -142.99,-85.6l0 0c-28.61,-41.06 -42.68,-101.35 -42.68,-182.07l0 0 0 -638.41c0,-112.18 7.36,-188.56 22.24,-229.22l0 0c14.71,-41.06 40.65,-61.27 78.47,-61.27l0 0c18.76,0 58.03,19.58 118.26,59.65l0 0c60.69,39.44 117.27,59.01 170.19,59.01l0 0c71.29,0 128.28,-23.45 169.8,-71.05l0 0c41.87,-47.2 62.49,-111.36 62.49,-192.5l0 0c0,-81.48 -22.88,-147.49 -69.03,-197.54l0 0c-46.22,-50.84 -106.43,-75.98 -181.21,-75.98l0 0c-79.51,0 -149.99,22.88 -211.89,69.67zm-2539.17 174.66c-156.54,160.59 -234.78,368.37 -234.78,622.71l0 0c0,253.71 78.88,460.69 236.4,623.07l0 0c158.33,162.04 359.74,242.93 604.88,242.93l0 0c248.26,0 451.12,-80.5 607.19,-241.08l0 0c155.9,-160.19 234.14,-368.55 234.14,-624.92l0 0c0,-255.79 -78.24,-463.75 -234.14,-623.93l0 0c-156.07,-159.78 -358.93,-239.86 -607.19,-239.86l0 0c-247.17,0 -449.46,80.5 -606.5,241.08zm440.82 1216.77c-31.45,-99.67 -47.15,-296.62 -47.15,-590.58l0 0c0,-297.89 15.69,-495.66 47.15,-592.89l0 0c31.09,-97.64 86.22,-146.05 165.68,-146.05l0 0c80.5,0 136.32,50.84 168.34,152.59l0 0c32.08,101.93 47.83,297.43 47.83,586.35l0 0c0,289.44 -15.75,485.41 -47.83,587.97l0 0c-32.02,101.93 -87.84,153 -168.34,153l0 0c-79.46,0 -134.59,-49.86 -165.68,-150.39z"/>
  </g>
 </g>
</svg>
