<svg width="495" height="307" viewBox="0 0 495 307" fill="none" xmlns="http://www.w3.org/2000/svg">
<path d="M240.146 8.49565C223.439 27.7976 210.328 50.3801 201.735 74.6418C193.113 98.8929 189.075 124.793 189.695 150.401C190.282 176.013 195.524 201.419 205.089 224.739C214.628 248.08 228.423 269.316 245.369 287.042L247.499 289.269L249.631 287.042C266.577 269.316 280.372 248.08 289.909 224.739C299.476 201.419 304.719 176.013 305.306 150.401C305.925 124.792 301.887 98.8929 293.262 74.6418C284.674 50.3801 271.562 27.7976 254.856 8.49565L247.499 4.5051e-06L240.146 8.49565Z" fill="#F2F2F2"/>
<path d="M398.222 63.4381C373.642 66.9182 349.809 75.3431 328.419 88.1131C320.699 92.7101 313.329 97.8982 306.324 103.569C309.203 119.182 310.458 135.081 310.077 150.877C309.441 178.603 303.765 206.105 293.409 231.35C286.693 247.787 278.026 263.259 267.738 277.349C280.336 273.851 292.628 268.978 304.333 262.773C325.899 251.383 345.424 235.466 361.51 216.247C377.617 197.05 390.333 174.475 398.532 150.064C406.767 125.664 410.508 99.4893 409.493 73.3971L409.044 61.9102L398.222 63.4381Z" fill="#F2F2F2"/>
<path d="M258.199 289.472C259.621 287.793 261.02 286.089 262.394 284.363C308.644 270.128 343.542 248.941 370.135 214.994C378.094 204.834 385.527 193.272 392.189 181.093C400.577 181.539 408.952 182.556 417.237 184.176C441.423 188.869 464.822 198.548 485.774 212.517L495 218.67L488.331 227.773C473.179 248.45 454.33 265.964 433.133 279.088C411.946 292.236 388.424 300.923 364.367 304.728C340.308 308.564 315.636 307.541 292.164 301.674C280.47 298.765 269.092 294.648 258.199 289.472Z" fill="#F2F2F2"/>
<path d="M323.783 21.2918C322.378 22.0679 320.982 22.8613 319.596 23.6723L319.003 24.0215L318.41 24.3723L317.82 24.7259L317.23 25.0812L316.642 25.4387L316.055 25.7985L315.469 26.1604L314.884 26.5241L314.751 26.6078C314.406 26.8237 314.062 27.0401 313.718 27.2582C313.136 27.6277 312.556 27.9994 311.979 28.375C311.209 28.8755 310.442 29.3817 309.678 29.8927L309.106 30.2777L308.536 30.6649C306.067 32.3454 303.634 34.0839 301.241 35.8777C299.401 37.2574 297.583 38.6716 295.79 40.1167L295.253 40.5512L294.718 40.9875L294.184 41.4256C293.829 41.719 293.474 42.0128 293.12 42.3083L292.59 42.7521L292.062 43.1982L291.536 43.6455L291.011 44.0951L290.487 44.5468L289.966 44.9999L289.445 45.4553L288.926 45.9123C288.58 46.2181 288.236 46.5243 287.892 46.8323C289.295 50.2414 290.452 52.9962 291.447 55.3623L291.451 55.3718L291.454 55.3796L291.466 55.4079L291.469 55.415C296.648 67.7356 297.401 69.5279 305.369 98.6716C308.149 96.8962 310.791 95.1807 313.349 93.5194C325.441 85.6663 335.668 79.0238 349.914 72.9878C348.701 64.8112 347.018 56.6987 344.872 48.7128L344.675 47.9871L344.476 47.2624L344.275 46.538L344.071 45.8146L343.864 45.092L343.654 44.3699L343.443 43.6486L343.229 42.9283L343.012 42.2088L342.793 41.4897L342.571 40.7716L342.347 40.0543L342.12 39.338L341.89 38.6225C341.66 37.907 341.426 37.1928 341.188 36.4804C340.869 35.53 340.546 34.5817 340.215 33.6361L339.966 32.9273L339.714 32.2198L339.459 31.5131L339.202 30.8069L338.943 30.102L338.68 29.398L338.416 28.6949L338.149 27.9932L337.879 27.2918L337.607 26.5918L333.456 15.9621L323.783 21.2918Z" fill="#F2F2F2"/>
<path d="M313.718 27.2582C314.062 27.0401 314.406 26.8237 314.751 26.6078L313.718 27.2582Z" fill="#F2F2F2"/>
<path d="M397.948 166.465C402.142 155.331 403.748 151.066 408.952 125.153C410.239 125.126 411.529 125.113 412.818 125.113C426.779 125.113 440.773 126.693 454.481 129.852L465.146 132.311L461.838 143.267C457.191 158.646 450.817 173.392 442.936 187.134C436.784 185.017 428.806 182.583 419.494 180.513C409.654 178.326 398.858 176.892 395.427 176.437L395.42 176.436C394.708 176.341 394.317 176.282 394.317 176.282C395.742 172.321 396.923 169.188 397.948 166.465Z" fill="#F2F2F2"/>
<path d="M157.392 26.5905C151.566 41.5162 147.438 57.1292 145.088 72.9882C159.331 79.0228 169.557 85.6643 181.647 93.5158C184.206 95.1784 186.85 96.8952 189.633 98.6721C197.6 69.5313 198.355 67.7363 203.531 55.4192C204.531 53.0411 205.696 50.2682 207.109 46.8331C196.121 36.9804 184.066 28.3838 171.214 21.2917L161.542 15.9603L157.392 26.5905Z" fill="#F2F2F2"/>
<path d="M29.8552 132.311L40.5189 129.851C54.2268 126.693 68.2195 125.113 82.1825 125.113L82.6058 125.113L82.6662 125.113L82.8246 125.113C84.1128 125.113 85.4032 125.126 86.6905 125.153C88.312 133.229 89.5838 139.202 90.6941 143.935C90.86 144.497 91.0286 145.057 91.1995 145.616L91.0943 145.616C93.3342 154.89 94.9672 159.226 97.6947 166.468C98.7196 169.189 99.9003 172.324 101.324 176.282C101.324 176.282 100.93 176.343 100.209 176.438C96.7678 176.895 85.9797 178.328 76.148 180.514C66.8359 182.584 58.8582 185.018 52.7056 187.134L52.6 186.949L52.0622 187.134C44.1821 173.393 37.8098 158.646 33.1629 143.267L29.8552 132.311Z" fill="#F2F2F2"/>
<path d="M96.7776 63.4381C121.357 66.9182 145.191 75.3431 166.581 88.1131C174.301 92.7101 181.671 97.8982 188.675 103.569C185.798 119.182 184.542 135.081 184.924 150.877C185.56 178.603 191.235 206.105 201.589 231.35C208.306 247.787 216.974 263.259 227.262 277.349C214.664 273.851 202.372 268.978 190.666 262.773C169.101 251.383 149.577 235.466 133.489 216.247C117.383 197.05 104.667 174.475 96.4674 150.064C88.2332 125.664 84.4915 99.4893 85.5063 73.3971L85.9559 61.9102L96.7776 63.4381Z" fill="#F2F2F2"/>
<path d="M236.802 289.472C235.379 287.793 233.98 286.089 232.607 284.363C186.356 270.128 151.458 248.941 124.865 214.994C116.907 204.834 109.473 193.272 102.811 181.093C94.4231 181.539 86.0483 182.556 77.7626 184.176C53.5774 188.869 30.178 198.548 9.22643 212.517L1.07719e-06 218.67L6.66954 227.773C21.8209 248.45 40.6696 265.964 61.8671 279.088C83.0543 292.236 106.577 300.923 130.634 304.728C154.692 308.564 179.364 307.541 202.836 301.674C214.53 298.765 225.908 294.648 236.802 289.472Z" fill="#F2F2F2"/>
</svg>
